<svg xmlns="http://www.w3.org/2000/svg" xmlns:xlink="http://www.w3.org/1999/xlink" width="382" height="135" viewBox="0 0 382 135">
  <defs>
    <clipPath id="clip-Artboard_6">
      <rect width="382" height="135"/>
    </clipPath>
  </defs>
  <g id="Artboard_6" data-name="Artboard – 6" clip-path="url(#clip-Artboard_6)">
    <path id="Subtraction_2" data-name="Subtraction 2" d="M5.958,31.274h0c-.344-.274-.681-.566-1-.866a18.329,18.329,0,0,1,0-25.061,16.96,16.96,0,0,1,6.991-3.959,9.917,9.917,0,0,0-6.252,9.231,8.765,8.765,0,0,0,2.641,6.354,18.3,18.3,0,0,0,7.024,4.05,15.241,15.241,0,0,1,4.549,2.167,3.35,3.35,0,0,1,1.367,2.8,3.259,3.259,0,0,1-1.428,2.768A7.3,7.3,0,0,1,15.673,29.8a20.521,20.521,0,0,1-8.838-2.2l-.876,3.67ZM27.24,19.205l0,0a16.818,16.818,0,0,0-6.924-4.3c-4.544-1.728-6.536-2.721-6.536-4.969A2.886,2.886,0,0,1,15.024,7.55,6.55,6.55,0,0,1,18.9,6.538h.065a16.89,16.89,0,0,1,7.31,1.672l1.041-3.768c.286.227.562.462.821.7L27.24,19.2Z" transform="translate(11 45.458)" fill="#ccc"/>
    <path id="Subtraction_3" data-name="Subtraction 3" d="M35.009,50.181h0a24.949,24.949,0,0,1-17.336-7.008c-.479-.511-.942-1.046-1.378-1.591a12.359,12.359,0,0,0,4.827-2.729l-.127,1.984H28.2l.609-13.1c.16-2.682.281-5.806.4-8.827.07-1.81.142-3.681.222-5.433h.1a129.542,129.542,0,0,0,3.109,13.442l3.685,13.35h6.089L46.6,26.821c1.34-4.02,2.773-9.01,3.832-13.349h.154c0,4.176.1,8.806.316,14.156l.5,13.208H54.47a24.95,24.95,0,0,1-19.461,9.344Zm-22.3-14.509h0A26.584,26.584,0,0,1,10.571,27.3a13.411,13.411,0,0,1,4.183,2.09A3.355,3.355,0,0,1,16.015,32.1c0,1.8-1.172,3.062-3.3,3.566Zm45.9-2.384h0L57.588,14.64A25.018,25.018,0,0,1,59.207,31.28C59.038,31.955,58.839,32.63,58.615,33.287ZM40.01,30.2h-.153c-.676-3.535-1.627-7.565-2.91-12.321L33.569,6.389H23.189L21.983,25.321a16.815,16.815,0,0,0-6.926-4.3,37.314,37.314,0,0,1-3.994-1.7,26.562,26.562,0,0,1,2.4-6.668H13.7a16.914,16.914,0,0,1,7.316,1.672L22.793,7.9a21.737,21.737,0,0,0-4.83-1.448A24.958,24.958,0,0,1,51.38,6.389H46.964L43.285,17.833c-1.01,3.451-2.173,7.842-3.274,12.365Z" transform="translate(16.258 39.342)" fill="#5f5f5f"/>
    <g id="Page-1" transform="translate(10.997 39.277)" opacity="0.699">
      <g id="logo-07-2" transform="translate(0.003 0.065)">
        <g id="logo-07">
          <path id="Subtraction_1" data-name="Subtraction 1" d="M-9368.4-2897.532a19.178,19.178,0,0,1-10.973-3.421,11.316,11.316,0,0,0,2.5-1.765l-.128,1.984h7.21l.609-13.1c.161-2.684.282-5.812.4-8.836v-.016c.075-1.958.144-3.716.221-5.408h.1a129.5,129.5,0,0,0,3.108,13.442l3.685,13.349h4.741a19.136,19.136,0,0,1-5.492,2.83A19.338,19.338,0,0,1-9368.4-2897.532Zm13.3-5.312v0l3.7-11.9c.617-1.852,1.268-3.95,1.882-6.069a19.293,19.293,0,0,1-5,17.388c-.19.2-.388.394-.587.583Zm-29.2-3.368h0a20.406,20.406,0,0,1-2.869-7.965,12.5,12.5,0,0,1,3.987,2.049,3.339,3.339,0,0,1,1.2,2.663,3.386,3.386,0,0,1-2.321,3.254Zm26.317-5.16h-.153c-.677-3.539-1.628-7.569-2.91-12.321l-3.378-11.489h-10.38l-1.208,18.932a16.786,16.786,0,0,0-6.925-4.3c-1.351-.514-2.745-1.063-3.792-1.6a20.44,20.44,0,0,1,3.119-6.76,16.714,16.714,0,0,1,6.633,1.658l1.776-6.429c-.609-.264-1.242-.5-1.88-.711a19.389,19.389,0,0,1,8.473-1.956,19.23,19.23,0,0,1,7.248,1.408,19.17,19.17,0,0,1,6.367,4.216,19.653,19.653,0,0,1,1.861,2.072l-1.578,4.908c-1.014,3.465-2.177,7.856-3.273,12.365Z" transform="translate(9403.258 2941.571)" fill="#929497"/>
          <path id="Path" d="M92.263,10.77V26.725c0,6.359-.362,7.96-2.782,7.96h0c-2.408,0-2.77-1.6-2.77-7.96h0V10.77H80.2V26.725c0,11.221,1.847,13.232,9.281,13.232h0c7.446,0,9.351-2.01,9.351-13.232h0V10.77Z" transform="translate(13.541 1.743)"/>
          <path id="Path-2" data-name="Path" d="M92.263,10.77V26.725c0,6.359-.362,7.96-2.782,7.96h0c-2.408,0-2.77-1.6-2.77-7.96h0V10.77H80.2V26.725c0,11.221,1.847,13.232,9.281,13.232h0c7.446,0,9.351-2.01,9.351-13.232h0V10.77Z" transform="translate(13.541 1.743)"/>
          <path id="Shape" d="M104.579,10.77l-6.429,28.7h6.394l.725-4.372h5.026l.725,4.372h6.394l-6.441-28.7Zm3.179,9.047L109.406,29.9h-3.249Z" transform="translate(16.572 1.743)"/>
          <path id="Shape-2" data-name="Shape" d="M104.579,10.77l-6.429,28.7h6.394l.725-4.372h5.026l.725,4.372h6.394l-6.441-28.7Zm3.179,9.047L109.406,29.9h-3.249Z" transform="translate(16.572 1.743)"/>
          <path id="Shape-3" data-name="Shape" d="M139.309,10.77l-6.429,28.7h6.394l.713-4.372h5.026l.725,4.372h6.394L145.7,10.77Zm3.179,9.047L144.136,29.9h-3.3Z" transform="translate(22.437 1.743)"/>
          <path id="Shape-4" data-name="Shape" d="M139.309,10.77l-6.429,28.7h6.394l.713-4.372h5.026l.725,4.372h6.394L145.7,10.77Zm3.179,9.047L144.136,29.9h-3.3Z" transform="translate(22.437 1.743)"/>
          <path id="Shape-5" data-name="Shape" d="M208.09,10.77v28.7h7.6c8.042,0,9.678-3.2,9.725-14.342h0c0-11.151-1.683-14.354-9.725-14.354Zm6.382,5.178c3.834,0,4.524.316,4.547,9.176h0c0,8.848-.713,9.164-4.547,9.164h0Zm10.941,9.176V25.6h0v-.479Z" transform="translate(35.139 1.743)"/>
          <path id="Shape-6" data-name="Shape" d="M208.09,10.77v28.7h7.6c8.042,0,9.678-3.2,9.725-14.342h0c0-11.151-1.683-14.354-9.725-14.354Zm6.382,5.178c3.834,0,4.524.316,4.547,9.176h0c0,8.848-.713,9.164-4.547,9.164h0Zm10.941,9.176V25.6h0v-.479Z" transform="translate(35.139 1.743)"/>
          <path id="Path-3" data-name="Path" d="M224.97,10.77v28.7h15.757V33.879h-9.363V27.614h8.147V22.026h-8.147V16.357h9.024V10.77Z" transform="translate(37.99 1.743)"/>
          <path id="Path-4" data-name="Path" d="M225,10.77v28.7h15.757V33.879h-9.351V27.614h8.182V22.026h-8.182V16.357h9.024V10.77Z" transform="translate(37.995 1.743)"/>
          <path id="Path-5" data-name="Path" d="M175.34,10.77v28.7H191.1V33.879h-9.374V27.614h8.147V22.026h-8.147V16.357h9.024V10.77Z" transform="translate(29.608 1.743)"/>
          <path id="Path-6" data-name="Path" d="M175.33,10.77v28.7H191.1V33.879h-9.351V27.614h8.182V22.026h-8.182V16.357h9.024V10.77Z" transform="translate(29.606 1.743)"/>
          <path id="Shape-7" data-name="Shape" d="M264.4,10.783,258.09,39.514h6.382l.713-4.395h5.026l.736,4.372h6.394l-6.5-28.731h-6.394Zm3.214,9.035L269.3,29.895H266Z" transform="translate(43.583 1.742)"/>
          <path id="Shape-8" data-name="Shape" d="M264.4,10.783,258.09,39.514h6.382l.713-4.395h5.026l.736,4.372h6.394l-6.5-28.731h-6.394Zm3.214,9.035L269.3,29.895H266Z" transform="translate(43.583 1.742)"/>
          <path id="Path-7" data-name="Path" d="M166.967,8c-.958,6.277-3,19.474-3,19.474h0c-.935-6.2-2.022-13.2-2.957-19.415H151V39.864h6.417V15.013c.105,0,4.044,24.862,4.044,24.862h4.991l4.126-24.862V39.84H176.9V8Z" transform="translate(25.498 1.276)"/>
          <path id="Path-8" data-name="Path" d="M166.967,8c-.958,6.277-3,19.474-3,19.474h0c-.935-6.2-2.022-13.2-2.957-19.415H151V39.864h6.417V15.013c.105,0,4.044,24.862,4.044,24.862h4.991l4.126-24.862V39.84H176.9V8Z" transform="translate(25.498 1.276)"/>
          <path id="Path-9" data-name="Path" d="M63.13,13.4a20.046,20.046,0,0,0-.432,4.2h0c-.187,4.266,1.835,7.165,5.634,8.954h0a27.481,27.481,0,0,1,3.6,1.964h0a4.079,4.079,0,0,1,1.414,4.909h0a2.209,2.209,0,0,1-2.034,1.59h0a2.081,2.081,0,0,1-2.081-1.777h0c-.257-.853-.257-1.788-.468-2.805H62.23v2.338c.094.362.117,6.078,5.482,7.329h0a12.858,12.858,0,0,0,8.837-.748h0c2.829-1.426,3.775-4.009,4.091-7.013h0c.526-5.108-1.169-8.848-5.541-10.952h0c-1.274-.608-2.5-1.286-3.729-1.964h0c-3.016-1.671-2.56-6.382.164-6.382h0c2.478,0,2.069,3.133,2.221,4.056H80.1c-.117-1.169-.21-2.151-.351-3.156h0a6.78,6.78,0,0,0-5.389-6.113h0a9.632,9.632,0,0,0-1.882-.269H71.5c-3.811,0-7.2,1.5-8.3,5.844" transform="translate(10.506 1.201)"/>
          <path id="Path-10" data-name="Path" d="M63.13,13.4a20.046,20.046,0,0,0-.432,4.2h0c-.187,4.266,1.835,7.165,5.634,8.954h0a27.481,27.481,0,0,1,3.6,1.964h0a4.079,4.079,0,0,1,1.414,4.909h0a2.209,2.209,0,0,1-2.034,1.59h0a2.081,2.081,0,0,1-2.081-1.777h0c-.257-.853-.257-1.788-.468-2.805H62.23v2.338c.094.362.117,6.078,5.482,7.329h0a12.858,12.858,0,0,0,8.837-.748h0c2.829-1.426,3.775-4.009,4.091-7.013h0c.526-5.108-1.169-8.848-5.541-10.952h0c-1.274-.608-2.5-1.286-3.729-1.964h0c-3.016-1.671-2.56-6.382.164-6.382h0c2.478,0,2.069,3.133,2.221,4.056H80.1c-.117-1.169-.21-2.151-.351-3.156h0a6.78,6.78,0,0,0-5.389-6.113h0a9.632,9.632,0,0,0-1.882-.269H71.5c-3.811,0-7.2,1.5-8.3,5.844" transform="translate(10.506 1.201)"/>
          <path id="Shape-9" data-name="Shape" d="M116.69,10.77V39.524h6.639V27.836h2.42c2.268,0,2.046,2.478,2.046,2.478h0v6.5a7.014,7.014,0,0,0,.655,2.7H135.6c-1.169,0-1.017-2.852-1.017-2.852h0V30.325a5.038,5.038,0,0,0-4.676-5.178h0c4.36,0,4.676-4.968,4.676-4.968h0V16.31c0-5.038-6.359-5.54-6.359-5.54H116.69Zm6.686,5.318h2.466a2.782,2.782,0,0,1,2.127,3.039h0c0,2.712-.456,3.285-2.338,3.811h-2.338Z" transform="translate(19.703 1.743)"/>
          <path id="Shape-10" data-name="Shape" d="M116.69,10.77V39.524h6.639V27.836h2.42c2.268,0,2.046,2.478,2.046,2.478h0v6.5a7.014,7.014,0,0,0,.655,2.7H135.6c-1.169,0-1.017-2.852-1.017-2.852h0V30.325a5.038,5.038,0,0,0-4.676-5.178h0c4.36,0,4.676-4.968,4.676-4.968h0V16.31c0-5.038-6.359-5.54-6.359-5.54H116.69Zm6.686,5.318h2.466a2.782,2.782,0,0,1,2.127,3.039h0c0,2.712-.456,3.285-2.338,3.811h-2.338Z" transform="translate(19.703 1.743)"/>
          <path id="Shape-11" data-name="Shape" d="M190.73,10.77V39.524h6.639V27.836h2.42c2.256,0,2.034,2.478,2.034,2.478h0v6.5a6.862,6.862,0,0,0,.666,2.7h7.154c-1.169,0-1.029-2.852-1.029-2.852h0V30.325a5.038,5.038,0,0,0-4.676-5.178h0c4.36,0,4.676-4.968,4.676-4.968h0V16.31c0-5.038-6.347-5.54-6.347-5.54H190.73Zm6.686,5.318h2.455a2.794,2.794,0,0,1,2.139,3.039h0c0,2.712-.468,3.285-2.338,3.811h-2.338Z" transform="translate(32.207 1.743)"/>
          <path id="Shape-12" data-name="Shape" d="M190.73,10.77V39.524h6.639V27.836h2.42c2.256,0,2.034,2.478,2.034,2.478h0v6.5a6.862,6.862,0,0,0,.666,2.7h7.154c-1.169,0-1.029-2.852-1.029-2.852h0V30.325a5.038,5.038,0,0,0-4.676-5.178h0c4.36,0,4.676-4.968,4.676-4.968h0V16.31c0-5.038-6.347-5.54-6.347-5.54H190.73Zm6.686,5.318h2.455a2.794,2.794,0,0,1,2.139,3.039h0c0,2.712-.468,3.285-2.338,3.811h-2.338Z" transform="translate(32.207 1.743)"/>
          <path id="Path-11" data-name="Path" d="M252.7,10.77,247.206,22.2V10.77H240.38V39.454h6.826l.023-7.212,1.765-3.016,4.138,10.228h7.481l-7.586-16.236,6.815-12.449Z" transform="translate(40.592 1.743)"/>
          <path id="Path-12" data-name="Path" d="M252.7,10.77,247.195,22.2V10.77H240.38V39.454h6.815V32.242l1.765-3.016L253.1,39.454h7.481l-7.551-16.236,6.78-12.449Z" transform="translate(40.592 1.743)"/>
          <rect id="Rectangle" width="2.653" height="3.133" transform="translate(323.94 38.042)" fill="#929497"/>
          <path id="Path-13" data-name="Path" d="M277.14,35.731h2.642V32.61H277.14Z" transform="translate(46.8 5.432)" fill="#929497"/>
          <path id="Path-14" data-name="Path" d="M283.2,26.057a3.144,3.144,0,0,0-1.391.912h0a4.512,4.512,0,0,0-.9,1.753h0a10.112,10.112,0,0,0-.316,2.759h0a11.854,11.854,0,0,0,.257,2.712h0a4.535,4.535,0,0,0,.771,1.742h0a2.642,2.642,0,0,0,1.286.912h0a5.961,5.961,0,0,0,1.812.245h0a3.963,3.963,0,0,0,3.156-1.169h0a4.827,4.827,0,0,0,.958-3.238h-2.653a4.337,4.337,0,0,1-.316,1.917h0a1.087,1.087,0,0,1-1.029.608h0a1.262,1.262,0,0,1-.748-.21h0a1.368,1.368,0,0,1-.456-.678h0a4.675,4.675,0,0,1-.21-1.169h0c0-.479-.07-1.04-.07-1.718h0a11.388,11.388,0,0,1,.07-1.625h0a4.466,4.466,0,0,1,.21-1.169h0a1.461,1.461,0,0,1,.491-.69h0a1.356,1.356,0,0,1,.818-.222h0a1,1,0,0,1,.643.187h0a1.379,1.379,0,0,1,.374.5h0a2.98,2.98,0,0,1,.175.69h0a5.752,5.752,0,0,1,0,.783h2.653a4.524,4.524,0,0,0-.97-3.051h0a3.647,3.647,0,0,0-2.9-1.169h0a5.961,5.961,0,0,0-1.765.257" transform="translate(47.382 4.259)" fill="#929497"/>
          <path id="Path-15" data-name="Path" d="M283.2,26.057a3.144,3.144,0,0,0-1.391.912h0a4.512,4.512,0,0,0-.9,1.753h0a10.112,10.112,0,0,0-.316,2.759h0a11.854,11.854,0,0,0,.257,2.712h0a4.535,4.535,0,0,0,.771,1.742h0a2.642,2.642,0,0,0,1.286.912h0a5.961,5.961,0,0,0,1.812.245h0a3.963,3.963,0,0,0,3.156-1.169h0a4.827,4.827,0,0,0,.958-3.238h-2.653a4.337,4.337,0,0,1-.316,1.917h0a1.087,1.087,0,0,1-1.029.608h0a1.262,1.262,0,0,1-.748-.21h0a1.368,1.368,0,0,1-.456-.678h0a4.675,4.675,0,0,1-.21-1.169h0c0-.479-.07-1.04-.07-1.718h0a11.388,11.388,0,0,1,.07-1.625h0a4.466,4.466,0,0,1,.21-1.169h0a1.461,1.461,0,0,1,.491-.69h0a1.356,1.356,0,0,1,.818-.222h0a1,1,0,0,1,.643.187h0a1.379,1.379,0,0,1,.374.5h0a2.98,2.98,0,0,1,.175.69h0a5.752,5.752,0,0,1,0,.783h2.653a4.524,4.524,0,0,0-.97-3.051h0a3.647,3.647,0,0,0-2.9-1.169h0a5.961,5.961,0,0,0-1.765.257" transform="translate(47.382 4.259)" fill="#929497"/>
          <path id="Shape-13" data-name="Shape" d="M292.615,25.812a4.781,4.781,0,0,0-1.987.374h0a3.226,3.226,0,0,0-1.321,1.075h0a5.015,5.015,0,0,0-.725,1.777h0a12.753,12.753,0,0,0-.222,2.455h0a13.067,13.067,0,0,0,.21,2.478h0a4.675,4.675,0,0,0,.678,1.777h0a2.689,2.689,0,0,0,1.309,1.04h0a5.249,5.249,0,0,0,2.057.316h0a5.248,5.248,0,0,0,2-.339h0a3.051,3.051,0,0,0,1.309-1.052h0a4.676,4.676,0,0,0,.725-1.777h0a11.762,11.762,0,0,0,.222-2.443h0a14.029,14.029,0,0,0-.2-2.49h0A4.968,4.968,0,0,0,296,27.2h0a2.957,2.957,0,0,0-1.309-1.075h0a4.886,4.886,0,0,0-1.929-.327h-.152m-.795,9.187a1.66,1.66,0,0,1-.456-.783h0a4.91,4.91,0,0,1-.187-1.169h0v-1.52h0V29.985h0a4.91,4.91,0,0,1,.187-1.169h0a1.718,1.718,0,0,1,.456-.783h0a1.169,1.169,0,0,1,.795-.281h0a1.169,1.169,0,0,1,1.169.888h0a9.479,9.479,0,0,1,.316,2.911h0a9.444,9.444,0,0,1-.316,2.9h0a1.169,1.169,0,0,1-1.169.888h0a1.169,1.169,0,0,1-.795-.281" transform="translate(48.695 4.281)" fill="#929497"/>
          <path id="Shape-14" data-name="Shape" d="M292.615,25.812a4.781,4.781,0,0,0-1.987.374h0a3.226,3.226,0,0,0-1.321,1.075h0a5.015,5.015,0,0,0-.725,1.777h0a12.753,12.753,0,0,0-.222,2.455h0a13.067,13.067,0,0,0,.21,2.478h0a4.675,4.675,0,0,0,.678,1.777h0a2.689,2.689,0,0,0,1.309,1.04h0a5.249,5.249,0,0,0,2.057.316h0a5.248,5.248,0,0,0,2-.339h0a3.051,3.051,0,0,0,1.309-1.052h0a4.676,4.676,0,0,0,.725-1.777h0a11.762,11.762,0,0,0,.222-2.443h0a14.029,14.029,0,0,0-.2-2.49h0A4.968,4.968,0,0,0,296,27.2h0a2.957,2.957,0,0,0-1.309-1.075h0a4.886,4.886,0,0,0-1.929-.327h-.152m-.795,9.187a1.66,1.66,0,0,1-.456-.783h0a4.91,4.91,0,0,1-.187-1.169h0v-1.52h0V29.985h0a4.91,4.91,0,0,1,.187-1.169h0a1.718,1.718,0,0,1,.456-.783h0a1.169,1.169,0,0,1,.795-.281h0a1.169,1.169,0,0,1,1.169.888h0a9.479,9.479,0,0,1,.316,2.911h0a9.444,9.444,0,0,1-.316,2.9h0a1.169,1.169,0,0,1-1.169.888h0a1.169,1.169,0,0,1-.795-.281" transform="translate(48.695 4.281)" fill="#929497"/>
          <path id="Path-16" data-name="Path" d="M305.7,26.243a2.478,2.478,0,0,0-1.04,1.3h0a2.127,2.127,0,0,0-.877-1.286h0a2.817,2.817,0,0,0-1.613-.444h0a3.39,3.39,0,0,0-1.555.327h0a3.109,3.109,0,0,0-1.169,1.064h0V26.032H296.8V36.821h2.77V29.784a2.092,2.092,0,0,1,.386-1.4h0a1.368,1.368,0,0,1,1.052-.444h0a.947.947,0,0,1,.842.362h0a1.824,1.824,0,0,1,.245,1.04h0V36.88h2.77v-7.1a2.092,2.092,0,0,1,.351-1.414h0a1.356,1.356,0,0,1,1.052-.444h0a.923.923,0,0,1,.83.362h0a1.73,1.73,0,0,1,.257,1.04h0v7.539h2.77V29.036a3.846,3.846,0,0,0-.655-2.338h0a2.431,2.431,0,0,0-2.034-.83h0a3.156,3.156,0,0,0-1.695.432" transform="translate(50.12 4.283)" fill="#929497"/>
          <path id="Path-17" data-name="Path" d="M305.7,26.243a2.478,2.478,0,0,0-1.04,1.3h0a2.127,2.127,0,0,0-.877-1.286h0a2.817,2.817,0,0,0-1.613-.444h0a3.39,3.39,0,0,0-1.555.327h0a3.109,3.109,0,0,0-1.169,1.064h0V26.032H296.8V36.821h2.77V29.784a2.092,2.092,0,0,1,.386-1.4h0a1.368,1.368,0,0,1,1.052-.444h0a.947.947,0,0,1,.842.362h0a1.824,1.824,0,0,1,.245,1.04h0V36.88h2.77v-7.1a2.092,2.092,0,0,1,.351-1.414h0a1.356,1.356,0,0,1,1.052-.444h0a.923.923,0,0,1,.83.362h0a1.73,1.73,0,0,1,.257,1.04h0v7.539h2.77V29.036a3.846,3.846,0,0,0-.655-2.338h0a2.431,2.431,0,0,0-2.034-.83h0a3.156,3.156,0,0,0-1.695.432" transform="translate(50.12 4.283)" fill="#929497"/>
        </g>
      </g>
    </g>
  </g>
</svg>
