<svg xmlns="http://www.w3.org/2000/svg" xmlns:xlink="http://www.w3.org/1999/xlink" width="382" height="135" viewBox="0 0 382 135">
  <defs>
    <clipPath id="clip-Artboard_1">
      <rect width="382" height="135"/>
    </clipPath>
  </defs>
  <g id="Artboard_1" data-name="Artboard – 1" clip-path="url(#clip-Artboard_1)">
    <g id="Group_98" data-name="Group 98" transform="translate(-370.738 532.33)">
      <path id="Path_268" data-name="Path 268" d="M2197.661-374.54c-2.871.01-5.743.009-8.614.042-.528.006-.676-.239-.8-.688-.643-2.311-1.338-4.608-1.967-6.923a.765.765,0,0,0-.891-.685q-4.495.035-8.99,0c-.553-.005-.738.209-.88.705-.719,2.514-1.478,5.016-2.23,7.544h-8.928c.119-.361.21-.676.326-.983q5.911-15.7,11.809-31.4a1.069,1.069,0,0,1,1.224-.811c2.216.035,4.433.043,6.648,0a1.054,1.054,0,0,1,1.186.848q5.836,15.677,11.724,31.336c.107.286.255.558.383.836Zm-16.721-21.923c-.958,2.75-1.827,5.243-2.711,7.779h5.362Z" transform="translate(-1452.282 -70.284)" fill="#494a4b"/>
      <path id="Path_269" data-name="Path 269" d="M472.647-440.112a7.382,7.382,0,0,1-.977-.4q-17.171-9.925-34.332-19.867c-1.34-.776-1.562-1.685-.775-3.039.847-1.456,1.694-2.911,2.56-4.355a1.873,1.873,0,0,1,2.857-.727c1.328.757,2.643,1.535,3.972,2.289.309.175.651.291,1.25.553a6.193,6.193,0,0,0-.326-1.064c-1.524-2.65-3.047-5.3-4.608-7.928-.672-1.131-1.35-1.029-2.1.262q-9.185,15.871-18.366,31.743-3.912,6.761-7.827,13.521c-.094.162-.182.328-.285.484-.643.979-1.326.984-1.916-.022-1.611-2.743-3.2-5.5-4.8-8.247-1.207-2.076-2.4-4.162-3.629-6.223a8.458,8.458,0,0,1-1.217-4.539c.033-3.59,0-7.18.016-10.771a5.148,5.148,0,0,0-1.949-4.246q-10.9-9.077-21.739-18.227a9.094,9.094,0,0,1-1.158-1.466,9.683,9.683,0,0,1,1.741-.318c12.019-.019,24.039,0,36.058-.025a8.884,8.884,0,0,1,4.717,1.269c2.059,1.235,4.15,2.416,6.221,3.631,1.345.789,1.574,1.69.785,3.04q-1.251,2.14-2.518,4.271a1.921,1.921,0,0,1-2.984.781c-1.447-.8-2.9-1.584-4.333-2.407a8.814,8.814,0,0,0-4.469-1.169q-3.933,0-7.867,0a1.458,1.458,0,0,0-.465.01c-.36.129-.705.3-1.056.448a3.552,3.552,0,0,0,.565.908q2.92,2.492,5.891,4.924a5.016,5.016,0,0,1,1.944,4.153c-.022,4.371-.03,8.742.012,13.112a10.054,10.054,0,0,0,.428,2.565c.228.817.794.9,1.383.279a4.077,4.077,0,0,0,.519-.774q13.017-22.569,26.039-45.135c.339-.587.543-1.582,1.4-1.4.523.112,1.019.811,1.335,1.358q14.736,25.466,29.427,50.958c.288.5.543,1.019.813,1.53Z" transform="translate(0 0)" fill="#494a4b"/>
      <path id="Path_270" data-name="Path 270" d="M1116.157-382.415v8.255h-24.848v-33.076h24.807v8.228H1115.1c-4.837,0-9.674.018-14.511-.018-.789-.006-1.034.229-.988,1,.06.993.015,1.993.015,3.1h14.034v6.73h-13.972v5.785Z" transform="translate(-580.249 -70.7)" fill="#494a4b"/>
      <path id="Path_271" data-name="Path 271" d="M1430.626-374.222h-8.335V-388.2h-12.366v13.945h-8.34v-33.089h8.305v12.309h12.394v-12.316h8.342Z" transform="translate(-832.4 -70.607)" fill="#494a4b"/>
      <path id="Path_272" data-name="Path 272" d="M1963.881-387.52c0,.646,0,1.206,0,1.765a3.514,3.514,0,0,0,2.476,3.478,9.278,9.278,0,0,0,5.708.028,3.463,3.463,0,0,0,1-.493c1.5-1.052,1.549-2.865-.048-3.746a21.634,21.634,0,0,0-4.087-1.537c-2.023-.625-4.121-1.028-6.106-1.75-3.209-1.167-5.813-3.022-6.486-6.709a9.051,9.051,0,0,1,4.633-9.972,15.485,15.485,0,0,1,15.716.285c3.178,1.846,4.1,4.992,3.766,8.608h-7.261a5.126,5.126,0,0,0-7.369-3.464,2.215,2.215,0,0,0-1.474,2.082,1.767,1.767,0,0,0,1.5,1.784c2.39.7,4.79,1.367,7.2,1.985a14.568,14.568,0,0,1,6.465,2.987c4.427,4,3.615,11.483-1.623,14.835-3.494,2.236-7.373,2.538-11.359,2.137a13.519,13.519,0,0,1-7.339-2.755c-3.073-2.466-3.989-5.722-3.566-9.55Z" transform="translate(-1282.57 -69.708)" fill="#494a4b"/>
      <path id="Path_273" data-name="Path 273" d="M1817.224-374.513c-2.858,0-5.694.016-8.529-.03-.229,0-.574-.4-.658-.677-.688-2.264-1.326-4.543-1.982-6.817-.068-.237-.15-.469-.239-.747-3.3,0-6.577-.012-9.851.027-.215,0-.542.352-.62.6-.713,2.289-1.366,4.6-2.086,6.885-.094.3-.465.721-.715.726-2.774.052-5.549.033-8.441.033.28-.782.518-1.477.777-2.163q5.7-15.125,11.4-30.252c.215-.573.447-.837,1.113-.823,2.308.048,4.619,0,6.927.043a1.145,1.145,0,0,1,.876.542q6.049,16.142,12.031,32.309A1.589,1.589,0,0,1,1817.224-374.513Zm-13.934-14.139-2.66-7.817-2.727,7.817Z" transform="translate(-1143.259 -70.281)" fill="#494a4b"/>
      <path id="Path_274" data-name="Path 274" d="M1259.228-395.411h-8.121a5.444,5.444,0,0,0-1.759-3.687,6.46,6.46,0,0,0-9.708,1.732,12.636,12.636,0,0,0-.11,12.036,6.344,6.344,0,0,0,7.859,2.973,5.872,5.872,0,0,0,3.568-5.267c.017-.337,0-.675,0-1.071h8.648c-.319,1.6-.515,3.195-.965,4.715a12.752,12.752,0,0,1-11.83,9.308,16.8,16.8,0,0,1-9.166-1.678,14.158,14.158,0,0,1-7.094-8.778,19.507,19.507,0,0,1,.736-13.986c3.135-6.9,10.476-10.2,18.029-8.234,5.763,1.5,9.292,5.533,9.881,11.29C1259.216-395.876,1259.215-395.692,1259.228-395.411Z" transform="translate(-692.636 -70.152)" fill="#494a4b"/>
      <path id="Path_275" data-name="Path 275" d="M933.618-374.2v-24.865H922.934v-8.25h27.34v8.233h-8.268V-374.2Z" transform="translate(-443.417 -70.639)" fill="#494a4b"/>
      <path id="Path_276" data-name="Path 276" d="M2110.958-407.446h8.241v33.11h-8.241Z" transform="translate(-1408.882 -70.529)" fill="#494a4b"/>
      <path id="Path_277" data-name="Path 277" d="M1632.289-407.717c1.084,0,2.113-.055,3.129.033a1.548,1.548,0,0,1,.88.689q9.125,12.915,18.225,25.849c.215.305.48.576.722.862l.226-.1v-27.3h1.641v33.171a15.261,15.261,0,0,1-2.173-.034c-.284-.041-.565-.43-.758-.72q-9.118-13.712-18.223-27.432a7.59,7.59,0,0,0-.9-.955l-.3.171v28.918h-2.47Z" transform="translate(-1019.885 -70.295)" fill="#494a4b"/>
      <path id="Path_278" data-name="Path 278" d="M1590.334-374.143h-2.422v-33.105h2.422Z" transform="translate(-983.821 -70.69)" fill="#494a4b"/>
    </g>
  </g>
</svg>
