<svg xmlns="http://www.w3.org/2000/svg" xmlns:xlink="http://www.w3.org/1999/xlink" width="382" height="135" viewBox="0 0 382 135">
  <defs>
    <clipPath id="clip-Artboard_5">
      <rect width="382" height="135"/>
    </clipPath>
  </defs>
  <g id="Artboard_5" data-name="Artboard – 5" clip-path="url(#clip-Artboard_5)">
    <g id="_0kI1Z7.tif" data-name="0kI1Z7.tif" transform="translate(-397.672 639.995)">
      <g id="Group_91" data-name="Group 91" transform="translate(511.844 -609.544)">
        <path id="Path_314" data-name="Path 314" d="M511.844-609.544H665.656v82.88H511.844Zm147.831,5.9H517.592v72.058H659.675Z" transform="translate(-511.844 609.544)" fill="#494a4b"/>
        <path id="Path_315" data-name="Path 315" d="M637-488.235H603.28a13.768,13.768,0,0,0,.382,5.679c.721,1.92,2.416,2.438,4.268,2.463,5.2.07,10.393.1,15.589.132,2.09.014,4.18,0,6.341,0v8.055c-.393.018-.757.05-1.121.048-7.179-.053-14.358-.074-21.536-.185a13,13,0,0,1-7.219-2.047,10.084,10.084,0,0,1-4.323-7.409,85.645,85.645,0,0,1-.549-9.152q-.119-6.223.033-12.451c.125-5.349,2.621-8.687,7.777-10.148a27.805,27.805,0,0,1,7.052-1.1c6.127-.1,12.26.034,18.389.174a11.381,11.381,0,0,1,3.7.792A6.9,6.9,0,0,1,636.613-507c.308,4.917.285,9.855.387,14.784C637.027-490.921,637-489.621,637-488.235Zm-7.491-7.1c0-2.479,0-4.9,0-7.314,0-3.244-.824-4.1-4.064-4.219-.149-.006-.3-.013-.448-.013-4.147.009-8.294,0-12.44.04-1.863.02-3.735.062-5.586.256a3.565,3.565,0,0,0-3.4,3.078c-.354,2.674-.339,5.4-.485,8.171Z" transform="translate(-576.388 535.738)" fill="#494a4b"/>
        <path id="Path_316" data-name="Path 316" d="M793.026-478.541h31.429v6.374H786.644a1.742,1.742,0,0,1-.089-.392c.005-4.562-.029-9.125.046-13.687a10.221,10.221,0,0,1,1.735-6.044,8.411,8.411,0,0,1,6.388-3.241c2.264-.21,4.55-.229,6.827-.248,4.151-.036,8.3-.007,12.453-.013,2.746,0,3.7-.938,3.748-3.689q.033-2.074-.027-4.15c-.066-2.422-1.021-3.36-3.471-3.37-4.338-.018-8.676,0-13.014,0h-1.311v-7.58c.289-.015.575-.044.861-.043,4.675.006,9.35-.045,14.023.049a9.406,9.406,0,0,1,7.144,2.941,9.752,9.752,0,0,1,2.407,6.248,72.137,72.137,0,0,1-.184,10.174c-.354,3.776-2.731,5.917-6.509,6.37a32.191,32.191,0,0,1-3.678.23c-5.273.024-10.546.011-15.819.011-.262,0-.524-.006-.785,0-3.233.092-4.342,1.219-4.36,4.451C793.018-482.33,793.026-480.507,793.026-478.541Z" transform="translate(-724.906 535.935)" fill="#494a4b"/>
        <path id="Path_317" data-name="Path 317" d="M960.413-507.321V-514.7c.265-.024.515-.065.764-.065,9.8,0,19.6.088,29.394-.046,3.973-.055,5.7,3.327,4.464,6.337a21.487,21.487,0,0,1-2.463,4.222q-11.109,15.532-22.28,31.02a2.155,2.155,0,0,1-2.014,1.067c-2.5-.079-5-.027-7.641-.027l25.344-35.135Z" transform="translate(-859.752 536.067)" fill="#494a4b"/>
      </g>
    </g>
  </g>
</svg>
