<svg xmlns="http://www.w3.org/2000/svg" xmlns:xlink="http://www.w3.org/1999/xlink" width="382" height="135" viewBox="0 0 382 135">
  <defs>
    <clipPath id="clip-path">
      <path id="Path_149" data-name="Path 149" d="M266.155-42.626V-61.4c0-.9-.218-1.239-1.164-1.2a44.739,44.739,0,0,1-4.856,0c-1.289-.092-1.674.251-1.674,1.674.059,11.544,0,23.1,0,34.65,0,.494.184,1.038-.226,1.549a1.716,1.716,0,0,1-1-1.565c-.1-1-.184-2-.193-3.005,0-5.333,0-10.674-.084-16.007a6.5,6.5,0,0,0-4.311-6.178,20.443,20.443,0,0,0-11.72-1.222c-5.082.837-7.786,3.658-8.606,8.556-.151.9,0,1.39,1.08,1.331,1.674-.092,3.349-.075,5.023,0,.887,0,1.331-.193,1.532-1.13a3.407,3.407,0,0,1,2.587-2.687,8.949,8.949,0,0,1,5.023.151,2.361,2.361,0,0,1,1.775,1.758A2.432,2.432,0,0,1,247.5-41.5c-2.093.686-4.3.686-6.455,1.055-2.871.494-5.651,1.164-7.7,3.5a13.043,13.043,0,0,0-1.859,3.432c0-5.977-.059-11.578,0-17.17,0-1.4-.41-1.674-1.674-1.624a40.711,40.711,0,0,1-4.847,0c-1.03-.05-1.423.251-1.331,1.314s0,2.185,0,3.273v3.2h0v3.282a1.674,1.674,0,0,1,0,.368V-37.1a20.1,20.1,0,0,1,0,2.779v10.054c0,.578-.084,1.13.837,1.113h6.17c.628,0,.837-.234.837-.837V-28.06c1.984,6.279,11.519,8.48,18.058,1.884a2.721,2.721,0,0,1,.352,1.365c.109,1.139.519,1.725,1.884,1.674,4.378-.1,8.748-.067,13.127,0,.971,0,1.264-.243,1.256-1.239C266.13-30.462,266.155-36.549,266.155-42.626Zm-16.743,7.761c.285,5.442-3.474,7.233-7.158,7A3.022,3.022,0,0,1,239.14-30.5c-.326-2.1.352-3.591,2.026-4.378a19.657,19.657,0,0,1,4.412-1.139,9.811,9.811,0,0,0,2.771-.728c.887-.486,1.155-.226,1.063.7-.025.393.008.787.008,1.18Z" transform="translate(-223.615 62.607)" fill="none"/>
    </clipPath>
    <clipPath id="clip-path-2">
      <path id="Path_151" data-name="Path 151" d="M266.162-42.726V-53.157c0-2.964.142-5.952,0-8.916,0-.837-.318-1.139-1.164-1.147h-5.115c-.837,0-1.3.276-1.406,1.13a25.106,25.106,0,0,0,0,2.972q.05,10.515,0,21.03v11.98c0,.251.075.77-.218.762-1.448,0-1.18-4.027-1.189-4.713V-44.208a13.286,13.286,0,0,0-.326-3.684c-.686-2.311-2.587-3.675-4.747-4.5a20.519,20.519,0,0,0-9.426-1.139,13.185,13.185,0,0,0-6.455,2.135,9.209,9.209,0,0,0-3.349,5.023,9.744,9.744,0,0,0-.427,2.244c0,.41-.126,1.18.167,1.524s.971.234,1.381.226c.837,0,1.674-.05,2.511,0,1,0,2.88.519,3.457-.594a16.1,16.1,0,0,1,.645-1.674,3.206,3.206,0,0,1,1.013-1.189,7.283,7.283,0,0,1,4.906-.553c1.231.234,2.938.762,2.98,2.319,0,1.03-1.314,1.725-2.277,2.009-3.106.913-6.413.72-9.51,1.733a9.829,9.829,0,0,0-3.809,2.218A11.72,11.72,0,0,0,231.47-34.2v-9.912c0-1.967,0-3.926.05-5.86a14.139,14.139,0,0,0,0-1.884c-.126-1-.779-1.13-1.674-1.105-1.674.059-3.416-.067-5.115,0-.837,0-1.063.486-1.08,1.247,0,1,.05,2.009,0,3.005v3.583h0a2.154,2.154,0,0,1,0,.519c0,1.314-.109,2.671,0,3.968v3.9a3.774,3.774,0,0,0,0,.435,1.6,1.6,0,0,0,0,.2c-.067-.837,0,0,0,.176v11.628a6.044,6.044,0,0,0,0,.837c.134.837.913.686,1.674.678h3.7c.611,0,2.1.335,2.428-.385a2.863,2.863,0,0,0,.05-1.038v-3.466c2.21,6.647,10.766,7.141,15.906,3.7a12.331,12.331,0,0,0,1.239-.938c.159-.134.837-.913.954-.887.393.067.393,2.177.762,2.587.561.628,1.549.469,2.294.46,1.373,0,2.738,0,4.1-.05,2.6,0,5.2,0,7.794.042.695,0,1.432.092,1.632-.72a5.106,5.106,0,0,0,0-1.239V-42.751h0v14.86a21.939,21.939,0,0,1,0,3.231c-.142.921-.879.837-1.674.837-2.461,0-4.923-.05-7.384-.042h-3.692c-.837,0-2.068.268-2.83-.2s-.636-1.147-.728-1.817a2.252,2.252,0,0,0-.151-.686c-.343-.561-.059-.243-.4-.092A9.469,9.469,0,0,0,248-25.514,12.34,12.34,0,0,1,238.577-23a8.824,8.824,0,0,1-7.108-5.709,2.162,2.162,0,0,1,0,.519v3.826c0,.276-.05.293,0,.218s-.159.193-.209.209a7.535,7.535,0,0,1-2.645.117h-3.29c-.343,0-1.013.126-1.339-.067-.159-.109-.427-.712-.3-.142a9.881,9.881,0,0,1,0-2.051v-3.131c0-1.725-.042-3.466,0-5.2v-2.9c.075-.494,0,.544,0-.05a45.087,45.087,0,0,0,0-4.521v-2.193h0a2.776,2.776,0,0,1,0-.527v-7.074c0,.377,0,.427.1.159.075,0,.251-.276.352-.335.645-.343,1.8-.059,2.511-.042h2.83a2.8,2.8,0,0,1,1.616.142c.553.352.469,1.1.46,1.674v16.45a1.8,1.8,0,0,1,0,.519,11.327,11.327,0,0,1,2.57-4.186,10.314,10.314,0,0,1,4.186-2.177,31.98,31.98,0,0,1,5.107-.9c1.624-.184,3.633-.26,5.023-1.164s1.524-3.725.41-4.914-3.273-1.231-4.7-1.13a4.438,4.438,0,0,0-3.784,1.959c-.3.578-.285,1.44-.837,1.875s-1.674.234-2.344.218h-3.349c-.678,0-1.524.117-1.54-.787v.971a9.77,9.77,0,0,1,3.943-7.225c2.88-1.984,6.882-2.319,10.264-2.059s7.869,1.264,9.652,4.487c1.055,1.909.837,4.186.837,6.321v13.21a23,23,0,0,0,.167,2.511,2.6,2.6,0,0,0,.285,1.1,1.507,1.507,0,0,0,.343.419c.343.285.352.251.561-.067.385-.594.05-2.411.05-3.022v-30.95c0-.837-.285-2.244.151-3.031.343-.628,1.1-.544,1.716-.511a36.769,36.769,0,0,0,3.843,0c.7,0,1.674-.251,1.925.6a12.7,12.7,0,0,1,0,3.24V-42.76C266.153-42.107,266.162-42.107,266.162-42.726Z" transform="translate(-223.602 63.22)" fill="none"/>
    </clipPath>
    <clipPath id="clip-path-3">
      <path id="Path_153" data-name="Path 153" d="M252.415-29.478c0,.553.042-.4,0,.117a1.911,1.911,0,0,1-.059.569,6.184,6.184,0,0,1-.117.686,6.092,6.092,0,0,1-.494,1.44,5.207,5.207,0,0,1-1.674,1.951,7.442,7.442,0,0,1-4.847,1.214,3.349,3.349,0,0,1-2.587-1.272,3.147,3.147,0,0,1-.5-1.239c-.059-.285-.059-.578-.1-.837.126,1.021,0,.553,0,.193a1.343,1.343,0,0,1,.1-.5c.7-2.428,3.466-2.888,5.55-3.265.77-.142,1.549-.268,2.311-.435a5.718,5.718,0,0,0,1.113-.343,2.964,2.964,0,0,1,.837-.352.41.41,0,0,1,.393.126.98.98,0,0,1,.084.218q.063.414,0-.452V-29.6h0v-1.339a7.31,7.31,0,0,0,0-.745c0-.293.059-.837-.31-.921a.963.963,0,0,0-.586.134,7.207,7.207,0,0,1-1.113.452c-.745.209-1.532.318-2.294.46-2.512.477-5.785.938-6.053,4.035a7.885,7.885,0,0,0,.193,3.005,2.972,2.972,0,0,0,2.378,2,7.258,7.258,0,0,0,5.668-1.3c2.026-1.632,2.2-4.253,2.093-6.7C252.423-30.24,252.4-29.8,252.415-29.478Z" transform="translate(-242.003 32.605)" fill="none"/>
    </clipPath>
    <clipPath id="clip-path-4">
      <path id="Path_155" data-name="Path 155" d="M196.691-33.964a2.838,2.838,0,0,1-.653,0c-2.034-.293-3.349.075-3.943,2.511-.946,3.684-6.7,3.215-8.372.837a9.15,9.15,0,0,1-1.591-4.378c-.3-3.022-.385-6.044,1-8.866,1.072-2.193,2.913-3.123,5.509-2.9,2.085.176,3.349,1.289,4.052,3.692a1.244,1.244,0,0,0,1.465,1.038c1.833-.05,3.675,0,5.509,0a4.863,4.863,0,0,1,.494,0,.192.192,0,0,0,.15-.053.192.192,0,0,0,.059-.148l-.126-3.809a.521.521,0,0,0,0-.059,10.252,10.252,0,0,0-7.652-6.6,18.785,18.785,0,0,0-2.972-.477c-6.254-.578-11.72,1.616-14.341,8.1-.092.243-.067.578-.327.737a.192.192,0,0,1-.164.022.193.193,0,0,1-.12-.114,14.419,14.419,0,0,0-4.722-6.413c-3.834-2.721-8.154-2.863-12.557-2.218a12.122,12.122,0,0,0-9.309,6.7,23.547,23.547,0,0,0-1.733,4.6.2.2,0,0,1-.152.134.2.2,0,0,1-.191-.067,13.1,13.1,0,0,0-7.024-3.876C137.01-46.119,134.992-46.5,133-47a37.486,37.486,0,0,1-6.923-1.951,3.767,3.767,0,0,1-2.263-3.006,3.767,3.767,0,0,1,1.468-3.465,5.952,5.952,0,0,1,2.436-1.231,13.713,13.713,0,0,1,5.977-.092c2.738.553,4.621,2.026,5.123,4.9.126.695.4.929,1.105.913,1.884-.05,3.767-.075,5.642,0,1.088.05,1.365-.326,1.239-1.339a11.812,11.812,0,0,0-6.463-9.569c-4.579-2.445-9.426-2.511-14.3-1.5-5.341,1.13-8.891,4.295-9.745,9.954a.837.837,0,0,1-.314.68.837.837,0,0,1-.733.157c-1.356-.042-2.721.067-4.069,0-1.13-.084-1.6.318-1.892,1.406-1.674,6.153-3.349,12.29-5.107,18.418a1.8,1.8,0,0,1-.293.837.193.193,0,0,1-.188.068.193.193,0,0,1-.147-.135l-.067-.218c-1.867-6.321-3.767-12.633-5.584-18.97-.318-1.122-.837-1.54-1.984-1.448-1.524.117-3.064,0-4.588,0-.963.05-1.306-.218-1.272-1.231.067-2.62,0-5.249,0-7.878,0-.938-.3-1.2-1.2-1.164-1.674.059-3.416.084-5.123,0-1.105-.059-1.381.318-1.381,1.4v36.885c0,.921.276,1.206,1.189,1.172,1.674-.067,3.416-.084,5.115,0,1.088.059,1.4-.26,1.39-1.365V-48.053a.2.2,0,0,1,.153-.19.2.2,0,0,1,.224.1,2.863,2.863,0,0,1,.142.335Q94.85-35.63,99.12-23.457c1.055,3.022-.628,5.492-3.8,5.584a13.771,13.771,0,0,1-1.44,0c-.594-.05-.9.126-.837.787v4.462c0,.527.151.787.728.837a22.084,22.084,0,0,0,6.639-.285,5.249,5.249,0,0,0,3.759-2.779,32.5,32.5,0,0,0,1.674-3.675c3.3-8.514,6.086-17.212,9.159-25.81.4-1.122.8-2.244,1.272-3.575a.193.193,0,0,1,.184-.136.193.193,0,0,1,.184.136,9.3,9.3,0,0,0,6.463,6.17c1.122.36,2.244.72,3.349,1.038,3.441.963,7.041,1.348,10.406,2.6,2.193.837,3.349,2.11,3.349,3.792a4.635,4.635,0,0,1-3.474,4.42,14.115,14.115,0,0,1-5.952.67c-3.809-.31-6.446-1.5-7.233-5.676-.126-.661-.419-.837-1.055-.837-1.917,0-3.851.075-5.768,0-1.055-.05-1.256.368-1.189,1.3a11.5,11.5,0,0,0,6.245,9.694c3.675,2.034,7.677,2.378,11.8,2.21,5.86-.234,10.707-2.152,13.663-7.777a.2.2,0,0,1,.18-.112.2.2,0,0,1,.18.112c2.763,5.935,7.677,7.961,13.755,7.869s10.758-2.679,13.21-8.757a.2.2,0,0,1,.188-.131.2.2,0,0,1,.188.131c2.026,6.22,6.438,8.723,12.449,8.748,6.471,0,10.741-3.047,12.834-8.974a.2.2,0,0,0,0-.067v-2.227a.2.2,0,0,0-.065-.14.2.2,0,0,0-.145-.053C199.169-33.855,197.8-34.047,196.691-33.964Zm-29.9,1.306a5.845,5.845,0,0,1-6.346,3.817,6.212,6.212,0,0,1-5.944-4.839,12.641,12.641,0,0,1-.553-4.27,11.536,11.536,0,0,1,1.432-6.019,6.1,6.1,0,0,1,5.768-2.955,5.8,5.8,0,0,1,5.442,3.457A13.32,13.32,0,0,1,166.8-32.658Z" transform="translate(-82.36 63.956)" fill="none"/>
    </clipPath>
    <clipPath id="clip-path-5">
      <path id="Path_157" data-name="Path 157" d="M196.683-34.61c-1.155.059-2.378-.368-3.4.385s-.971,2.018-1.557,3.005c-1.08,1.817-3.575,2.085-5.433,1.574-2.645-.72-3.809-3.257-4.119-5.86-.393-3.24-.318-8.146,2.846-10.155,2.059-1.3,5.4-1.072,6.848,1.013.6.837.653,2.738,1.833,2.972a13.336,13.336,0,0,0,2.453,0H199.3c.435,0,.938.142,1.1-.285a2.7,2.7,0,0,0,0-.837c0-.594,0-1.2-.059-1.792a14.733,14.733,0,0,0-.067-2.11,7.961,7.961,0,0,0-1.859-3.273,12.089,12.089,0,0,0-7.66-3.742,17.07,17.07,0,0,0-8.238.661,11.913,11.913,0,0,0-5.977,4.839,14.232,14.232,0,0,0-1,1.867c-.151.335-.36,1.591-.837,1.231-.193-.134-.385-.837-.477-1.038-.159-.335-.335-.67-.511-1a14.486,14.486,0,0,0-1.306-2.009,12.825,12.825,0,0,0-8.5-4.73,19.3,19.3,0,0,0-9.527.954,12.466,12.466,0,0,0-6.136,5.609,17.261,17.261,0,0,0-1,2.152,16.739,16.739,0,0,1-.837,2.511c-.26.419-.293.3-.628,0s-.553-.553-.837-.837a11.455,11.455,0,0,0-2.193-1.356c-3.215-1.674-7.007-2.185-10.49-2.989a38.744,38.744,0,0,1-5.308-1.415,4.546,4.546,0,0,1-2.938-2.511,1.54,1.54,0,0,1,0-1.432,4.119,4.119,0,0,1,1.063-1.674,7.576,7.576,0,0,1,4.83-1.758c2.8-.209,6.413.276,8.062,2.855a5.86,5.86,0,0,1,.728,1.674c.151.561.126,1.247.779,1.448a9.033,9.033,0,0,0,2.511,0h3.022c1,0,1.85.067,1.875-1.147a11.284,11.284,0,0,0-.285-2.7c-1.44-6.48-7.694-9.887-13.972-10.188-5.542-.26-12.281,1.18-15.069,6.538a14.658,14.658,0,0,0-1.2,3.951c-.126.619-.285.946-.946,1.013a25.2,25.2,0,0,1-3.181,0c-1.44,0-2.419-.2-2.9,1.365-.611,1.984-1.088,4.01-1.674,6.011q-1.607,5.818-3.248,11.611c-.084.3-.293,1.909-.779,1.674-.209-.1-.326-.9-.377-1.063-.151-.527-.31-1.055-.469-1.582l-1.674-5.726q-.837-2.863-1.741-5.927c-.276-.921-.544-1.85-.837-2.771a18.293,18.293,0,0,0-.837-2.679c-.653-1.432-2.453-.9-3.717-.9H91.309c-.586,0-1,0-1.222-.611-.1-.26,0,.059,0,0a3.931,3.931,0,0,1,0-.444v-3.282c0-1.674.142-3.3,0-4.931-.117-1.406-1.75-.954-2.771-.929s-1.842,0-2.763,0c-.536,0-1.381-.218-1.833.184s-.335,1.381-.335,1.967V-24.4c0,1.055.234,1.515,1.39,1.482.921,0,1.842-.05,2.763,0a19.933,19.933,0,0,0,2.645.05c.946-.126.913-.971.913-1.75v-22.9c.335-.7.72.837.837,1.03l.695,1.959q.753,2.16,1.515,4.32,1.524,4.32,3.031,8.648c1.013,2.871,2.093,5.735,3.031,8.64a2.947,2.947,0,0,1-.193,2.645,3.818,3.818,0,0,1-1.984,1.6c-1.13.4-2.177.084-3.3.26-.678.109-.645.611-.653,1.18v4.462c0,.435-.117,1.088.285,1.381s1.323.193,1.817.218h2.152a13.729,13.729,0,0,0,3.96-.62c2.319-.837,3.3-3.089,4.186-5.2,2.361-5.45,4.186-11.185,6.078-16.794.979-2.838,1.951-5.676,2.947-8.5l1.331-3.742c.109-.3.31-1.4.6-1.49s.619,1.046.72,1.272c2.093,4.47,7.2,5.617,11.6,6.605a59,59,0,0,1,8.179,2.043c1.674.636,3.734,2.051,3.114,4.069-.686,2.244-3,3.2-5.115,3.6a15.019,15.019,0,0,1-6.923-.31,5.919,5.919,0,0,1-3.767-3.072,7.262,7.262,0,0,1-.46-1.256c-.117-.419-.117-1.055-.41-1.4s-.837-.285-1.256-.285h-4.571a3.349,3.349,0,0,0-1.582.067c-.511.276-.444.837-.444,1.348a12.558,12.558,0,0,0,.938,4.889c1.842,4.387,6.371,6.84,10.883,7.61,4.353.737,9.5.62,13.57-1.264a13.126,13.126,0,0,0,4.68-3.658,10.278,10.278,0,0,0,.837-1.2c.243-.41.494-1.155.787-1.356.444-.285.686.678.837,1a15.618,15.618,0,0,0,1.088,1.532c2.428,3.349,6.17,4.914,10.188,5.207s8.054-.352,11.168-2.9a13.612,13.612,0,0,0,3.591-4.688c.117-.243.36-1.172.611-1.231s.486.787.561.988a14.658,14.658,0,0,0,1.465,2.863,12.062,12.062,0,0,0,9.418,5.023c3.935.268,8-.62,10.883-3.5a14.232,14.232,0,0,0,3.047-4.872,8.2,8.2,0,0,0,.209-3.039c0-.176.109-.879-.067-1.046s-1.105-.067-1.39-.075a19.709,19.709,0,0,0-2.11,0V-33.5a19.709,19.709,0,0,1,2.11,0c.36,0,1.289-.159,1.457.218v1.222a11.151,11.151,0,0,1-2.11,4.136,11.72,11.72,0,0,1-3.2,3.005,14.876,14.876,0,0,1-9.117,1.825,12.181,12.181,0,0,1-7.761-3.349,12.482,12.482,0,0,1-2.511-3.843c-.159-.368-.31-.737-.435-1.105s-.159-.686-.527-.452c-.193.117-.377.887-.494,1.113-.209.435-.435.837-.686,1.281-3.349,5.634-10.138,7.208-16.291,6.019a12.691,12.691,0,0,1-7.794-4.688,14.66,14.66,0,0,1-1.281-1.992c-.1-.193-.343-.963-.594-.963s-.67.971-.837,1.2A13.613,13.613,0,0,1,143.3-26.2a16.408,16.408,0,0,1-8.832,2.964c-4.186.3-8.581,0-12.348-1.984a11.846,11.846,0,0,1-6.162-7.367,9.4,9.4,0,0,1-.4-2.11c.176-.762.963-.653,1.582-.636h3.3c.728,0,2.252-.352,2.846.184.444.4.444,1.457.636,2.009a6.322,6.322,0,0,0,1.055,1.917,6.421,6.421,0,0,0,3.474,2c3.2.787,8.02.837,10.506-1.674,1.473-1.482,1.859-4.688.427-6.346-1.222-1.415-3.307-1.909-5.023-2.369-2.16-.569-4.37-.938-6.547-1.465-3.416-.837-7.392-1.733-9.644-4.671a9.963,9.963,0,0,1-1.214-2.135c-.084-.2-.184-.963-.536-.837s-.46,1.113-.544,1.323c-.737,2.076-1.473,4.186-2.2,6.22-1.54,4.437-3.047,8.891-4.613,13.328-.837,2.244-1.607,4.487-2.453,6.7a33.835,33.835,0,0,1-2.6,5.86,5.743,5.743,0,0,1-4.186,2.629,19.9,19.9,0,0,1-3.349.293,8.128,8.128,0,0,1-3.19-.243c-.5-.26-.268-1.13-.26-1.674V-16.8a1.674,1.674,0,0,1,0-.494c-.117.26.184-.075.209-.084a1.49,1.49,0,0,1,.837-.126,7.878,7.878,0,0,0,2.763-.243c2.336-.762,2.871-3.081,2.57-5.266a15,15,0,0,0-.887-2.871l-1.239-3.541L94.867-36.3c-.779-2.227-1.565-4.445-2.344-6.7-.393-1.113-.787-2.227-1.172-3.349L90.8-47.92c-.092-.251-.293-1.331-.686-.913-.184.193-.042.963-.042,1.172v20.912c0,.645.26,1.892-.276,2.411s-1.348.234-1.892.218c-1.18-.042-2.361,0-3.541,0-.611,0-1.49.226-1.858-.4s-.1-1.951-.092-2.637v-31.31a19.649,19.649,0,0,1,0-3.139.946.946,0,0,1,1.013-.837c1.072-.109,2.235.067,3.349.05a9.106,9.106,0,0,1,2.821,0c.762.293.527.837.519,1.457v6.7c0,1-.134,1.984,1.139,2.026h3.2c.837,0,1.942-.293,2.687.117a2.511,2.511,0,0,1,.946,1.674l1.03,3.566c.653,2.235,1.314,4.479,1.976,6.7l2.11,7.108c.126.435.544,2.327.963,1.046.343-1.055.569-2.177.837-3.248,1.3-4.6,2.587-9.209,3.834-13.813a8.431,8.431,0,0,1,.837-2.679c.486-.636,1.214-.544,1.925-.511,1.088.042,2.177,0,3.257,0s1.314-.151,1.507-1.155a11.377,11.377,0,0,1,4.7-7.643c2.947-1.976,6.8-2.6,10.272-2.637a17.447,17.447,0,0,1,11.26,3.608,12.13,12.13,0,0,1,4.253,8.372v-.837c-.117,1.1-1.247.837-2.068.837h-4.429c-1.289,0-1.339-.318-1.674-1.473a5.575,5.575,0,0,0-1.331-2.511c-1.532-1.607-3.943-2.051-6.061-2.118-2.436-.067-5.5.368-6.915,2.62a5.467,5.467,0,0,0-.578,3.4c.226,2.369,2.386,3.282,4.4,3.893,2.671.837,5.467,1.323,8.187,1.942a23.767,23.767,0,0,1,7.049,2.419A10.794,10.794,0,0,1,145-42.387c.234.2.837,1.08,1.155,1.021s.5-1.314.578-1.532c.209-.661.444-1.314.712-1.959a13.931,13.931,0,0,1,3.868-5.333c3.5-2.888,8.866-3.441,13.2-2.645a12.231,12.231,0,0,1,8.656,5.81c.234.368,1.4,3.064,1.758,2.964s.377-.837.452-1.03a13.287,13.287,0,0,1,.67-1.39,12.86,12.86,0,0,1,1.992-2.746,11.762,11.762,0,0,1,4.68-2.98c4.328-1.49,10.163-1.072,13.939,1.616,1.515,1.08,3.282,3.022,3.575,4.931a33.7,33.7,0,0,1,.126,3.684v-.913c-.2.5-2.57.218-3.064.218a21.062,21.062,0,0,1-3.633,0c-.837-.167-.913-.913-1.164-1.616a4.956,4.956,0,0,0-1.4-2.16,5.425,5.425,0,0,0-5.02-.716,5.425,5.425,0,0,0-3.418,3.746,15.371,15.371,0,0,0-.728,5.375,18.227,18.227,0,0,0,.578,5.433A5.651,5.651,0,0,0,185.39-28.9a6.178,6.178,0,0,0,3.993.368,3.926,3.926,0,0,0,1.884-1.063,6.856,6.856,0,0,0,1.072-2.311,2.629,2.629,0,0,1,1.515-1.574c.921-.326,1.859,0,2.8-.075C196.742-33.563,196.675-34.61,196.683-34.61Z" transform="translate(-82.308 64.734)" fill="none"/>
    </clipPath>
    <clipPath id="clip-path-6">
      <path id="Path_159" data-name="Path 159" d="M180.717-29.975a6.111,6.111,0,0,1-6.7,3.784,6.455,6.455,0,0,1-5.651-5.115c-.929-3.449-.586-8.179,2.411-10.59a6.882,6.882,0,0,1,8.137,0,8.677,8.677,0,0,1,2.578,5.023,11.954,11.954,0,0,1-.753,6.915c-.117.31.117.745,0,1.046a15.705,15.705,0,0,0,.31-10.59,6.492,6.492,0,0,0-3.349-4.136,7.375,7.375,0,0,0-5.149-.26c-3.977,1.306-4.68,5.86-4.7,9.485,0,3.072.594,6.831,3.533,8.48a7.534,7.534,0,0,0,5.416.645,5.86,5.86,0,0,0,3.918-3.625C180.843-29.23,180.592-29.682,180.717-29.975Z" transform="translate(-167.85 44.241)" fill="none"/>
    </clipPath>
    <clipPath id="clip-path-7">
      <path id="Path_161" data-name="Path 161" d="M65.806-52.351c-1.75.067-3.508.075-5.249,0-1.038-.05-1.314.276-1.314,1.314.042,8.263,0,16.534,0,24.8v1.565c-1.348-1.055-1.206-2.352-1.214-3.508-.067-5.425-.05-10.883-.067-16.266,0-3.817-1.448-5.86-5.023-7.334a17.706,17.706,0,0,0-5.609-1.206c-3.3-.218-6.538,0-9.535,1.674A9.77,9.77,0,0,0,34-47.127c-.218-1.206-.36-2.1-.536-2.989-1.432-7.534-6.7-12.231-14.232-12.407-5.776-.142-11.553,0-17.321-.059-1.072,0-1.063.544-1.063,1.314v36.835c0,1.046.3,1.323,1.323,1.306,5.207-.05,10.406,0,15.613,0a17.363,17.363,0,0,0,5.91-1c4.069-1.515,6.58-4.487,8.254-8.2h0c.084-.276.159-.544.243-.837L32.545-34c.293.31.184.561-.075.837-.05.46.1.954-.234,1.356h0c0,2.511.276,4.9,2.143,6.806,2.729,2.8,6.086,3.148,9.686,2.511,2.511-.477,4.5-2.009,6.446-3.826.167.837.318,1.473.435,2.143A1.191,1.191,0,0,0,52.3-23.126H65.814c.837,0,1.13-.234,1.122-1.105v-26.9C66.969-52.05,66.743-52.393,65.806-52.351ZM24.651-36.1c-1.473,4.186-4.186,6.095-8.606,6.111-1.875,0-3.759-.059-5.634,0-1.155.05-1.582-.218-1.549-1.482.092-3.843,0-7.694,0-11.536v-11.67c0-1,.31-1.306,1.281-1.264,2.57.1,5.165-.2,7.719.134,4.655.594,6.228,1.951,7.308,6.53A22.871,22.871,0,0,1,24.651-36.1Zm8.715.184a35.16,35.16,0,0,0,.762-6.22c0-.686.4-.753.938-.753h4.454c.695,0,1.139-.109,1.306-.887a3.9,3.9,0,0,1,3.817-3.173,9.728,9.728,0,0,1,3.868.393,2.511,2.511,0,0,1,1.875,2.511,2.344,2.344,0,0,1-1.825,2.411,30.775,30.775,0,0,1-6.17,1.046C38.866-40,35.542-39.132,33.365-35.918Zm16.676,3.96c-.837,3.005-5.023,5.023-7.978,3.843a3.257,3.257,0,0,1-2.1-3.307A3.508,3.508,0,0,1,42.2-34.955a17.388,17.388,0,0,1,2.763-.8,17.064,17.064,0,0,0,5.383-1.54A18.334,18.334,0,0,1,50.042-31.958Z" transform="translate(-0.85 62.588)" fill="none"/>
    </clipPath>
    <clipPath id="clip-path-8">
      <path id="Path_163" data-name="Path 163" d="M65.8-53c-1.616.059-3.231.075-4.847,0-.929,0-1.624,0-1.674,1.046-.209,2.511,0,5.174,0,7.727v18.895a3.583,3.583,0,0,1-1.214-3q0-2.637-.042-5.257V-43.9a10.576,10.576,0,0,0-.946-5.4c-1.139-1.992-3.349-3.039-5.509-3.658C46.6-54.41,39.156-54.385,35.548-50.04a13.294,13.294,0,0,0-1.113,1.6l-.176.293c-.159.435-.234.4-.234-.084A4.487,4.487,0,0,1,33.84-49.3a29.937,29.937,0,0,0-.77-3.516,15.345,15.345,0,0,0-3.181-5.818c-3.089-3.457-7.325-4.554-11.8-4.638-3.3-.059-6.6-.042-9.9,0H3.208c-1.113,0-2.252-.268-2.3,1.105-.117,2.712,0,5.458,0,8.179v9.946c0,6.58-.1,13.16,0,19.732,0,.72,0,1.381.837,1.549a12.926,12.926,0,0,0,2.511,0h2.88c3.684,0,7.375.075,11.059,0a15.5,15.5,0,0,0,8.732-2.7,16.383,16.383,0,0,0,5.023-6.463,2.746,2.746,0,0,0,0-1.046h0v1.046c.109-.368.218-.72.36-1.08s.343-.762.4-.109v-1.046a1.674,1.674,0,0,0-.26.837,2.78,2.78,0,0,1,0,.745c.05-.151-.193.209-.218.335a5.643,5.643,0,0,0,0,1.063c0,2.285.335,4.6,1.909,6.379,3.608,4.11,10.188,3.767,14.307.67A18.966,18.966,0,0,0,50-25.428l.26-.226c.193-.318.293-.326.293,0a3.064,3.064,0,0,1,.193.929c.293,1.432.385,2.059,1.967,2.059H64.991c.452,0,1.239.151,1.632-.159s.318-1.457.318-2.009V-51.447c0-.9-.142-1.457-1.172-1.465v1.046c.988,0,1.147.469,1.155,1.373v24.278c0,.837.352,2.26-.745,2.511a18.9,18.9,0,0,1-3.642,0H54.376c-.837,0-2.511.368-3.114-.343a2.076,2.076,0,0,1-.352-1.021,7.535,7.535,0,0,0-.368-1.808,14.8,14.8,0,0,0-1.281,1.139c-.46.385-.946.753-1.448,1.1a11.62,11.62,0,0,1-6.287,1.775,9.443,9.443,0,0,1-6.362-2.059c-2.193-1.825-2.88-4.353-2.888-7.124v.661a5.567,5.567,0,0,0,.234-1.122,1.85,1.85,0,0,1,0-.569c0,.075.142.142.243,0v-.109a3.089,3.089,0,0,0,0-.921c-.067-.36-.067-.5-.293-.167a5.023,5.023,0,0,0-.477,1.339,3.131,3.131,0,0,0,0,1.046h0v-1.08c-2.143,4.554-5.726,7.928-10.791,8.857-3.1.578-6.388.31-9.527.31s-6.312.1-9.452,0C.906-23.8.889-24.523.9-25.7V-59.349c0-1.139-.452-2.771,1.063-2.863s3.349,0,4.948,0h9.485a23.052,23.052,0,0,1,7.534.837,13.713,13.713,0,0,1,5.023,2.947,14.567,14.567,0,0,1,3.508,5.14,17.807,17.807,0,0,1,.929,2.98c.134.594.234,1.2.343,1.8l.176,1.013.067.368c0,.486.075.519.234.084a14.457,14.457,0,0,0,1.1-1.674,8.656,8.656,0,0,1,1.264-1.331,10.473,10.473,0,0,1,3.642-1.875,20.167,20.167,0,0,1,8.313-.544c2.679.3,5.81,1.139,7.7,3.164s1.733,4.789,1.741,7.375v14.742a3.575,3.575,0,0,0,1.214,2.9,2.227,2.227,0,0,1,0-.527V-46.976a29.3,29.3,0,0,1,0-4.11c.151-1.03,1.072-.887,1.9-.837,1.549.05,3.1,0,4.646,0A4.791,4.791,0,0,0,65.8-53Z" transform="translate(-0.835 63.305)" fill="none"/>
    </clipPath>
    <clipPath id="clip-path-9">
      <path id="Path_165" data-name="Path 165" d="M26.2-35.437c-1.055,2.9-3.005,5.174-6.111,5.86a26.094,26.094,0,0,1-5.718.234,16.651,16.651,0,0,1-3.1,0c-.645-.126-.837-.569-.837-1.189V-51.452c0-.678-.268-1.817.142-2.394s1.155-.368,1.733-.368h3.457a22.737,22.737,0,0,1,5.534.477,6.287,6.287,0,0,1,4.856,4.253A21.063,21.063,0,0,1,26.2-35.42c-.109.31.109.737,0,1.046a25.651,25.651,0,0,0,.167-15.563,6.58,6.58,0,0,0-3.072-4.186c-2.252-1.147-5.073-1.2-7.534-1.164l-2.445.042a8.681,8.681,0,0,0-2.235,0c-.728.218-.67.979-.67,1.607v10.49c0,3.859.059,7.727,0,11.586,0,.678-.067,1.39,0,2.068.075,1.122.753,1.239,1.75,1.206,3.056-.1,6.455.477,9.368-.72A8.686,8.686,0,0,0,26.2-34.415C26.314-34.7,26.088-35.135,26.2-35.437Z" transform="translate(-10.347 55.316)" fill="none"/>
    </clipPath>
    <clipPath id="clip-path-10">
      <path id="Path_167" data-name="Path 167" d="M39.679-32.454c.268-1.524.561-3.047.695-4.588.05-.561-.176-2.076.469-2.336a5.458,5.458,0,0,1,1.808-.05h2.068c1,0,2.068.285,2.419-.837a4.186,4.186,0,0,1,1.331-2.269,4.964,4.964,0,0,1,2.788-.929c1.951-.142,5.425.159,5.433,2.8v-.661c-.142,1.674-1.725,2.227-3.181,2.511-1.909.427-3.876.477-5.793.837-3.19.569-6.136,1.725-8.045,4.47-.167.234.159.837,0,1.046,1.909-2.746,4.864-3.9,8.045-4.47,1.867-.335,3.784-.393,5.634-.787,1.482-.31,3.223-.837,3.349-2.587a5.316,5.316,0,0,0-.293-2.562c-.728-1.49-2.93-1.674-4.387-1.674a5.149,5.149,0,0,0-3.968,1.348,4.186,4.186,0,0,0-.837,1.674c-.2.695-.393,1.072-1.164,1.113-1.113.059-2.26,0-3.349,0-.619,0-1.992-.31-2.193.519a2.336,2.336,0,0,0,0,.486,18.543,18.543,0,0,1-.167,2.361c-.151,1.214-.377,2.411-.586,3.608C39.62-33.166,39.737-32.789,39.679-32.454Z" transform="translate(-39.621 44.556)" fill="none"/>
    </clipPath>
    <clipPath id="clip-path-11">
      <path id="Path_169" data-name="Path 169" d="M57.642-27.634c-.963,3.181-5.55,5.349-8.531,3.583a3.106,3.106,0,0,1-1.432-2.026,3.75,3.75,0,0,1-.092-.6c-.084-.913-.092.988,0,.067v-.268a3.834,3.834,0,0,1,.435-1.239A3.943,3.943,0,0,1,50.3-29.794a23.223,23.223,0,0,1,3.524-.837c.645-.117,1.289-.243,1.925-.419.318-.092.636-.193.954-.31a8.64,8.64,0,0,1,.946-.427c.4-.109.268.326.276.62v1.314a10.289,10.289,0,0,1-.326,2.21c-.092.326.084.728,0,1.046a22.637,22.637,0,0,0,.3-6.3V-33c-2.1,1.164-4.512,1.247-6.781,1.884a5.408,5.408,0,0,0-2.687,1.465,3.65,3.65,0,0,0-.837,2.185c-.1,1.482-.084,3.257,1.2,4.261a5.467,5.467,0,0,0,4.914.444,6.162,6.162,0,0,0,3.96-3.792C57.734-26.905,57.541-27.316,57.642-27.634Z" transform="translate(-47.521 33)" fill="none"/>
    </clipPath>
    <clipPath id="clip-path-12">
      <path id="Path_171" data-name="Path 171" d="M301.208-59.36c0-1.13.486-2.6-.193-3.29s-2.244-.142-3.4-.276c-.837-.092-1.13.2-1.105,1.072.059,2.152,0,4.3,0,6.7a.184.184,0,0,1-.117.17.184.184,0,0,1-.2-.045,6.086,6.086,0,0,0-5.961-1.892A7.263,7.263,0,0,0,284.5-51.3h0a31.083,31.083,0,0,0-.042,6.89l.042.385h0a6.858,6.858,0,0,0,.234.737c2.076,5.232,7.786,6.413,11.72,2.453h.042a.176.176,0,0,1,.143.035.176.176,0,0,1,.066.132c.117,1.674.176,1.674,1.959,1.674a7.267,7.267,0,0,1,1.046,0c1.155.167,1.557-.209,1.54-1.465C301.175-46.769,301.225-53.064,301.208-59.36Zm-5.023,15.128a3.6,3.6,0,0,1-3.31,1.891,3.6,3.6,0,0,1-3.153-2.143,7.434,7.434,0,0,1-.569-3.19,7.594,7.594,0,0,1,.6-3.19,3.29,3.29,0,0,1,3.148-2.16,3.391,3.391,0,0,1,3.29,1.976,7.534,7.534,0,0,1,.008,6.815Z" transform="translate(-284.286 63.009)" fill="none"/>
    </clipPath>
    <clipPath id="clip-path-13">
      <path id="Path_173" data-name="Path 173" d="M301.189-58.907c0-1.03.209-2.043.167-3.081-.075-1.925-1.607-1.591-3.064-1.507-.527,0-1.314-.209-1.674.31a2.126,2.126,0,0,0-.134,1.147v6.279c-.218.494-.837-.393-1.072-.569a5.977,5.977,0,0,0-1.607-.946,6.429,6.429,0,0,0-3.6-.26,7.108,7.108,0,0,0-4.856,3.474c-1.08,1.892-1.1,3.968-1.105,6.095,0,1.792-.142,3.784.578,5.458,1.616,3.767,5.86,5.7,9.577,3.692a7.934,7.934,0,0,0,1.356-.929c.209-.167.527-.695.837-.569s0,1.4.686,1.674a3.181,3.181,0,0,0,1.055.084,16.287,16.287,0,0,0,1.808,0c.837,0,1.021-.561,1.063-1.3.176-3.089,0-6.245,0-9.343v8.162a1.6,1.6,0,0,1-.326,1.2c-.335.31-.787.218-1.206.2-.661-.042-1.339,0-2,0-.913-.092-.837-.594-.988-1.356s-.36-.293-.837.092a8.052,8.052,0,0,1-1.465,1.021,6.9,6.9,0,0,1-3.231.837,6.756,6.756,0,0,1-5.442-2.93A6.964,6.964,0,0,1,284.4-45a16.056,16.056,0,0,1,.134-6.162,7.384,7.384,0,0,1,4.579-5.023,6.982,6.982,0,0,1,3.968-.26,5.786,5.786,0,0,1,1.674.7c.226.142,1.415,1.289,1.6,1.189s.126-.753.126-.954v-5.885a2.6,2.6,0,0,1,0-.569v.092c.243-.6.594-.569,1.206-.561s1.423-.151,2.135-.126c1.674.05,1.356,1.406,1.323,2.654A7.738,7.738,0,0,1,301.189-58.907Z" transform="translate(-284.169 63.57)" fill="none"/>
    </clipPath>
    <clipPath id="clip-path-14">
      <path id="Path_175" data-name="Path 175" d="M297.137-42.912a3.6,3.6,0,0,1-4.261,1.758,3.189,3.189,0,0,1-1.85-1.373,5.156,5.156,0,0,1-.586-1.272,5.858,5.858,0,0,1-.209-.837,5.871,5.871,0,0,0-.117-1.021c-.117-.31,0,.477,0,.092v-.712a7.535,7.535,0,0,1,.36-1.674,4.127,4.127,0,0,1,1.507-2.177,3.692,3.692,0,0,1,4.571.569,6.337,6.337,0,0,1,1.306,3.265v.62a6.955,6.955,0,0,1-.126.837,8.313,8.313,0,0,1-.661,1.925c-.134.285.134.762,0,1.046a9.585,9.585,0,0,0,.5-6.58,4.487,4.487,0,0,0-1.825-2.779,3.851,3.851,0,0,0-2.964-.335c-2.152.619-2.729,3.2-2.754,5.165a5.371,5.371,0,0,1,0,.636c.067-.569,0,.117,0,.26a11.727,11.727,0,0,0,.075,1.532,5.2,5.2,0,0,0,1.373,3.114,3.65,3.65,0,0,0,3.039.837,3.273,3.273,0,0,0,2.512-1.85C297.28-42.151,297-42.644,297.137-42.912Z" transform="translate(-290.028 51.716)" fill="none"/>
    </clipPath>
    <clipPath id="clip-path-15">
      <path id="Path_177" data-name="Path 177" d="M283.084-45.729A6.7,6.7,0,0,1,283.259-48v-1.03a26.051,26.051,0,0,1,0-3.131c-.067-1.038.494-2.637-.268-3.231s-2.177-.134-3.29-.226c-.963-.092-1.164.3-1.155,1.189.042,4.32,0,8.648,0,12.968,0,1.164-.519,2.679.234,3.4s2.252.126,3.416.234c.8.075,1.063-.184,1.038-1-.05-1.833,0-3.675,0-5.509a4.122,4.122,0,0,0,0-.444,5.87,5.87,0,0,1-.151-.946Z" transform="translate(-278.372 55.7)" fill="none"/>
    </clipPath>
    <clipPath id="clip-path-16">
      <path id="Path_179" data-name="Path 179" d="M283.075-45.33v-1.524c0-.2.075-.536,0-.167,0,.042.167-.619.159-.561v-3.9c0-1.113.117-2,.1-3.231,0-.536,0-1.105-.561-1.39-.837-.452-2.018-.092-2.88-.109s-1.323,0-1.39.946v13.286c0,.837-.159,1.6-.167,2.4a4.614,4.614,0,0,0,.1,1.44c.293.837,1.189.913,1.984.837a17.347,17.347,0,0,1,1.741-.1,1.071,1.071,0,0,0,.913-.276c.226-.276.134-1.113.134-1.524,0-2.4.059-4.772-.159-7.158v1.046c.151,1.6.126,3.181.126,4.8a13.4,13.4,0,0,1,0,1.741c.067-.494-.067,0-.2.159a1.038,1.038,0,0,1-.72.176c-1,0-2.955.553-3.658-.4-.5-.686-.092-2.018-.092-2.855V-53.041a4.5,4.5,0,0,1,.084-1.741c.343-.536.837-.41,1.423-.4s1.356-.134,2.034-.067a1.674,1.674,0,0,1,.837.226c.05,0,.578.678.444.7v.092c0,.243-.059.494-.075.737s0,.343,0,.519v1.222a26.771,26.771,0,0,0,.042,3.139h0a3.991,3.991,0,0,0-.218,1.432v.846A8.017,8.017,0,0,1,283.075-45.33Z" transform="translate(-278.319 56.333)" fill="none"/>
    </clipPath>
    <clipPath id="clip-path-17">
      <path id="Path_181" data-name="Path 181" d="M284.2-43.838V-46.5a6.7,6.7,0,0,0-.176,2.269,5.862,5.862,0,0,0,.134.946,1.222,1.222,0,0,1,.042-.553Z" transform="translate(-283.995 46.5)" fill="none"/>
    </clipPath>
    <clipPath id="clip-path-18">
      <path id="Path_183" data-name="Path 183" d="M284.2-43.939v-3.031a.451.451,0,0,1,0-.151,2.4,2.4,0,0,0-.2.938v2.193a4.019,4.019,0,0,0,.134,1.1.84.84,0,0,1,0-.151v-.142a.669.669,0,0,1,.05-.251.907.907,0,0,0,0-.151v-.745a.451.451,0,0,1,0-.151,2.263,2.263,0,0,0-.059.712v-.142a5.868,5.868,0,0,1-.134-.946v1.03a16.616,16.616,0,0,0,0-1.674v-.31a4.311,4.311,0,0,0,0,.569v-.176a2,2,0,0,1,.167-.62v2.662Z" transform="translate(-283.979 47.12)" fill="none"/>
    </clipPath>
    <clipPath id="clip-path-19">
      <path id="Path_185" data-name="Path 185" d="M223.69-56.674c0,.695.26.9.929.9,2.009,0,4.018-.042,6.028,0,.728,0,.887-.31.879-.946v-5.249c0-.7-.268-.913-.929-.887H224.7c-.7,0-1.038.151-1.013.938C223.732-60.173,223.723-58.423,223.69-56.674Z" transform="translate(-223.688 62.862)" fill="none"/>
    </clipPath>
    <clipPath id="clip-path-20">
      <path id="Path_187" data-name="Path 187" d="M223.658-56.775a2.6,2.6,0,0,0,.084,1.046.753.753,0,0,0,.745.368c1.222.042,2.445,0,3.667,0h1.674c.4,0,1.072.142,1.415-.151a.887.887,0,0,0,.234-.7v-5.4c0-.527.218-1.674-.477-1.825a5.249,5.249,0,0,0-1.356,0h-3.625a15.955,15.955,0,0,0-1.674,0c-.946.059-.745,1.147-.737,1.825v-.159a1.073,1.073,0,0,1,0-.159.611.611,0,0,1,.527-.452,7.35,7.35,0,0,1,1.423,0h5.023a.787.787,0,0,1,.712.3,2.184,2.184,0,0,1,.084.209v5.4c0-1.03.042-.486-.075-.243a.553.553,0,0,1-.268.285,3.072,3.072,0,0,1-1.3.075h-3.868a8.9,8.9,0,0,1-1.766,0,.686.686,0,0,1-.368-.176c-.134-.142-.176-.636-.176-.167a2.789,2.789,0,0,1,0-.527,2.774,2.774,0,0,0,.1.452Z" transform="translate(-223.545 63.483)" fill="none"/>
    </clipPath>
    <clipPath id="clip-path-21">
      <path id="Path_189" data-name="Path 189" d="M77.5-62.86H73.837c-3.24,0-3.257,0-3.231,3.248,0,1.214-.519,2.788.209,3.541s2.4.134,3.441.268h3.223c.678,0,.938-.268.929-.929v-5.232C78.441-62.626,78.19-62.885,77.5-62.86Z" transform="translate(-70.426 62.862)" fill="none"/>
    </clipPath>
    <clipPath id="clip-path-22">
      <path id="Path_191" data-name="Path 191" d="M77.521-63.5c-1.423.05-2.855,0-4.278,0a4.789,4.789,0,0,0-1.951.209,1.281,1.281,0,0,0-.628,1.113,20.763,20.763,0,0,0,0,2.6v-.444a1.406,1.406,0,0,1,0,.318v.4a8.259,8.259,0,0,1-.092.837v1.532a1.808,1.808,0,0,0,.385,1.231,1.783,1.783,0,0,0,1.365.4c.536,0,1.063-.126,1.6-.151s1.272,0,1.9,0h1.9a.745.745,0,0,0,.553-.148.745.745,0,0,0,.285-.5,12.641,12.641,0,0,0,0-1.951v-2.8c0-.661.059-1.339,0-2.009,0-.544-.385-.72-.9-.72v1.046c.36,0,.72.05.837.427v5.19c0-.519,0-.134-.059,0a.611.611,0,0,1-.335.343,3.767,3.767,0,0,1-1.406.059H74.875a13.085,13.085,0,0,0-1.515,0c-.837.092-1.951.352-2.511-.41a1.331,1.331,0,0,1-.243-.544,1,1,0,0,0-.05-.385c-.05-.117,0,.837,0,.46v-.318c0-.486.117-.971.134-1.457s0-.921,0-1.39h0a1.24,1.24,0,0,0,0-.176v-.226a4.613,4.613,0,0,1,.05-.477,1.155,1.155,0,0,1,.586-.921,4.395,4.395,0,0,1,1.925-.226h4.32A6.888,6.888,0,0,1,77.521-63.5Z" transform="translate(-70.533 63.58)" fill="none"/>
    </clipPath>
    <clipPath id="clip-path-23">
      <path id="Path_193" data-name="Path 193" d="M280.942-58.839c2.336,0,2.336,0,2.336-2.311,0-2,0-2-2.252-2-2.436,0-2.436,0-2.436,2.235C278.59-58.839,278.59-58.839,280.942-58.839Z" transform="translate(-278.59 63.15)" fill="none"/>
    </clipPath>
    <clipPath id="clip-path-24">
      <path id="Path_195" data-name="Path 195" d="M280.939-58.362h1.155a1.833,1.833,0,0,0,.695-.134c.385-.184.444-.628.469-1.013.059-.9,0-1.825,0-2.729,0-.393,0-1-.335-1.256a1.239,1.239,0,0,0-.628-.176h-2.327a3.416,3.416,0,0,0-.779.1c-.427.134-.544.5-.586.913a24.817,24.817,0,0,0,0,2.62c0,.444-.075,1.189.343,1.5a1.339,1.339,0,0,0,.695.193h1.314v-1.046a5.793,5.793,0,0,1-1.783-.117.837.837,0,0,1-.527-.753v-.913a4.106,4.106,0,0,1,0-.452.963.963,0,0,1,.452-.837,3.775,3.775,0,0,1,1.5-.159,10.531,10.531,0,0,1,1.992.067.737.737,0,0,1,.653.636,1.757,1.757,0,0,1,.042.36,1.234,1.234,0,0,1,0,.176.474.474,0,0,0,0,.109h0v.318h0v.377a1.108,1.108,0,0,1-.469,1.063,1.834,1.834,0,0,1-.695.134h-1.155A8.209,8.209,0,0,0,280.939-58.362Z" transform="translate(-278.569 63.67)" fill="none"/>
    </clipPath>
    <clipPath id="clip-path-25">
      <path id="Path_197" data-name="Path 197" d="M38.42-27.353v-.067h-.167c-.084.268-.159.536-.243.837h0C38.244-26.792,38.244-26.792,38.42-27.353Z" transform="translate(-38.01 27.42)" fill="none"/>
    </clipPath>
    <clipPath id="clip-path-26">
      <path id="Path_199" data-name="Path 199" d="M38.428-26.928v-1.063h-.151v.059l-.067.251-.151.486v1.046h0a.075.075,0,0,0,0-.042v-.477h0v.519a.67.67,0,0,0,.2-.234,3.458,3.458,0,0,0,.184-.519.9.9,0,0,0,0-.151V-28a1.261,1.261,0,0,1-.109.343,1.338,1.338,0,0,1-.084.193.377.377,0,0,1-.084.117l-.067.067h0v1.046l.151-.486.067-.251v-.059h.151v-.913a.109.109,0,0,0,0,.05v.9A.159.159,0,0,0,38.428-26.928Z" transform="translate(-38.06 28)" fill="none"/>
    </clipPath>
    <clipPath id="clip-path-27">
      <path id="Path_201" data-name="Path 201" d="M38.532-27.42l-.059.117a2.419,2.419,0,0,0-.1,1.239c.335-.4.184-.9.234-1.356Z" transform="translate(-38.334 27.42)" fill="none"/>
    </clipPath>
    <clipPath id="clip-path-28">
      <path id="Path_203" data-name="Path 203" d="M38.529-28a1.675,1.675,0,0,0-.142.452,2.21,2.21,0,0,0-.05.527,12.224,12.224,0,0,0,0,1.356v.05h0a.293.293,0,0,0,.05-.075,1.557,1.557,0,0,0,.084-.167,1.138,1.138,0,0,0,.067-.326v-.62a.444.444,0,0,1,0-.109V-28h-.075v1.046h.075v.4h0v-.62h0a1.122,1.122,0,0,1-.092.4.628.628,0,0,1-.059.1.251.251,0,0,1-.059.084h0v-.092a.635.635,0,0,1,0-.126h0a1.122,1.122,0,0,1,0-.167h0v.837h0a2.093,2.093,0,0,1,.05-.318,1.616,1.616,0,0,1,.134-.385.9.9,0,0,0,0-.151V-28Z" transform="translate(-38.318 28)" fill="none"/>
    </clipPath>
    <clipPath id="clip-path-29">
      <path id="Path_205" data-name="Path 205" d="M284.232-42.233v-.326l-.042-.1a4.138,4.138,0,0,1,0,.444Z" transform="translate(-284.19 42.66)" fill="none"/>
    </clipPath>
    <clipPath id="clip-path-30">
      <path id="Path_207" data-name="Path 207" d="M284.239-42.336v-.837a.126.126,0,0,0,0-.059h0v1.348h0v-.837h0v.954a.233.233,0,0,0,0,.075h0v-.519l.042.1V-42.3Z" transform="translate(-284.236 43.29)" fill="none"/>
    </clipPath>
    <clipPath id="clip-path-31">
      <path id="Path_209" data-name="Path 209" d="M284.229-43.32a1.222,1.222,0,0,0-.042.553l.042.1Z" transform="translate(-284.173 43.32)" fill="none"/>
    </clipPath>
    <clipPath id="clip-path-32">
      <path id="Path_211" data-name="Path 211" d="M284.23-43.94a.725.725,0,0,0-.05.193v1.4a.36.36,0,0,0,.042.1v-1.03a.176.176,0,0,1,0-.092v-.159a8.138,8.138,0,0,0,0,.9h0a.736.736,0,0,1,.05-.226V-43.94Z" transform="translate(-284.18 43.94)" fill="none"/>
    </clipPath>
    <clipPath id="clip-path-33">
      <path id="Path_213" data-name="Path 213" d="M38.769-28.16a1.4,1.4,0,0,1-.209.578h0A1.214,1.214,0,0,0,38.769-28.16Z" transform="translate(-38.56 28.16)" fill="none"/>
    </clipPath>
    <clipPath id="clip-path-34">
      <path id="Path_215" data-name="Path 215" d="M38.768-28.765h0a1.39,1.39,0,0,1-.209.561v1.046h0V-27.2a.779.779,0,0,0,.042-.084l.075-.167a.653.653,0,0,0,0-.184V-28.74h0a.184.184,0,0,0,0,.067v.008h0a.837.837,0,0,1-.067.285l-.059.126v.059h0v1.046a1.6,1.6,0,0,0,.134-.268,1.088,1.088,0,0,0,.075-.326v-1Z" transform="translate(-38.55 28.79)" fill="none"/>
    </clipPath>
    <clipPath id="clip-path-35">
      <path id="Path_217" data-name="Path 217" d="M38.523-27.631a1.4,1.4,0,0,0,.209-.578,1.214,1.214,0,0,1-.184.586h.059a.524.524,0,0,0,.075-.837l-.352.837A.151.151,0,0,1,38.523-27.631Z" transform="translate(-38.33 28.46)" fill="none"/>
    </clipPath>
    <clipPath id="clip-path-36">
      <path id="Path_219" data-name="Path 219" d="M38.514-27.208a1.6,1.6,0,0,0,.134-.268l.05-.151a1.49,1.49,0,0,0,0-.385v-.72h0a1.281,1.281,0,0,1-.176.511v.929a.235.235,0,0,0,0,.075h0a.5.5,0,0,0,.067-.067.511.511,0,0,0,.1-.134.377.377,0,0,0,.059-.151.26.26,0,0,0,0-.084v-1.063a.252.252,0,0,0,0-.084.628.628,0,0,0-.084-.167s-.059-.084-.075-.084v.109l-.1.218-.209.477v.075a.519.519,0,0,0,0,.109v.9a.167.167,0,0,1,.193-.05V-28.1a.963.963,0,0,0,0-.159.167.167,0,0,0-.193.05v1.046l.276-.619.067-.151h0l.05.067a.511.511,0,0,1,.092.234v-1a.477.477,0,0,1-.092.243l-.092.109a.062.062,0,0,1-.059.059h0v1.046a2.369,2.369,0,0,0,.142-.335.72.72,0,0,0,.042-.193v-1.088h0a1.465,1.465,0,0,1-.209.561v1.046Z" transform="translate(-38.277 29.05)" fill="none"/>
    </clipPath>
    <clipPath id="clip-path-37">
      <path id="Path_221" data-name="Path 221" d="M38.56-28.1V-27h0v-1.08h0v1.046h0v-1.046h0V-28.1Z" transform="translate(-38.56 28.1)" fill="none"/>
    </clipPath>
    <clipPath id="clip-path-38">
      <path id="Path_223" data-name="Path 223" d="M38.57-27.421h.017S38.57-27.429,38.57-27.421Z" transform="translate(-38.57 27.424)" fill="none"/>
    </clipPath>
    <clipPath id="clip-path-39">
      <path id="Path_225" data-name="Path 225" d="M38.569-27h.075a1.074,1.074,0,0,0,0-.151v-.862a.21.21,0,0,0,0-.067h0a.361.361,0,0,1,0,.042v.929a.234.234,0,0,0,0,.075h0v-.979h-.075a1.073,1.073,0,0,0,0,.151v.368S38.561-27,38.569-27Z" transform="translate(-38.566 28.08)" fill="none"/>
    </clipPath>
    <clipPath id="clip-path-40">
      <path id="Path_227" data-name="Path 227" d="M38.523-27.473a.151.151,0,0,0-.193.05H38.5Z" transform="translate(-38.33 27.489)" fill="none"/>
    </clipPath>
    <clipPath id="clip-path-41">
      <path id="Path_229" data-name="Path 229" d="M38.522-28.1a.209.209,0,0,0-.1,0,.218.218,0,0,0-.092.059v.025a.518.518,0,0,0,0,.109v.9h.184v-1h-.176v1.046a.218.218,0,0,1,.092-.059.209.209,0,0,1,.1,0V-28.1Z" transform="translate(-38.327 28.107)" fill="none"/>
    </clipPath>
    <clipPath id="clip-Artboard_2">
      <rect width="382" height="135"/>
    </clipPath>
  </defs>
  <g id="Artboard_2" data-name="Artboard – 2" clip-path="url(#clip-Artboard_2)">
    <g id="Group_97" data-name="Group 97" transform="translate(63.166 111.734)" opacity="0.699">
      <g id="Group_18" data-name="Group 18" transform="translate(187.338 -62.953)" clip-path="url(#clip-path)">
        <path id="Path_148" data-name="Path 148" d="M218.615-18.8h50.913V-67.607H218.615Z" transform="translate(-222.8 63.421)"/>
      </g>
      <g id="Group_19" data-name="Group 19" transform="translate(187.328 -63.467)" clip-path="url(#clip-path-2)">
        <path id="Path_150" data-name="Path 150" d="M218.6-18.495h51.016V-68.22H218.6Z" transform="translate(-222.788 64.034)"/>
      </g>
      <g id="Group_20" data-name="Group 20" transform="translate(202.732 -37.837)" clip-path="url(#clip-path-3)">
        <path id="Path_152" data-name="Path 152" d="M237-19.015h18.823V-37.6H237Z" transform="translate(-241.189 33.419)"/>
      </g>
      <g id="Group_21" data-name="Group 21" transform="translate(69.085 -64.082)" clip-path="url(#clip-path-4)">
        <path id="Path_154" data-name="Path 154" d="M77.36-8.287H203.747V-68.956H77.36Z" transform="translate(-81.546 64.77)"/>
      </g>
      <g id="Group_22" data-name="Group 22" transform="translate(69.041 -64.734)" clip-path="url(#clip-path-5)">
        <path id="Path_156" data-name="Path 156" d="M77.308-7.806H203.8V-69.734H77.308Z" transform="translate(-81.494 65.549)"/>
      </g>
      <g id="Group_23" data-name="Group 23" transform="translate(140.654 -47.578)" clip-path="url(#clip-path-6)">
        <path id="Path_158" data-name="Path 158" d="M162.85-21.677H185.2V-49.241H162.85Z" transform="translate(-167.036 45.055)"/>
      </g>
      <g id="Group_24" data-name="Group 24" transform="translate(0.847 -62.938)" clip-path="url(#clip-path-7)">
        <path id="Path_160" data-name="Path 160" d="M-4.15-18.847H70.31V-67.588H-4.15Z" transform="translate(-0.036 63.403)"/>
      </g>
      <g id="Group_25" data-name="Group 25" transform="translate(0.835 -63.538)" clip-path="url(#clip-path-8)">
        <path id="Path_162" data-name="Path 162" d="M-4.165-18.389H70.35V-68.305H-4.165Z" transform="translate(-0.02 64.119)"/>
      </g>
      <g id="Group_26" data-name="Group 26" transform="translate(8.798 -56.85)" clip-path="url(#clip-path-9)">
        <path id="Path_164" data-name="Path 164" d="M5.347-24.863H30.863V-60.316H5.347Z" transform="translate(-9.533 56.13)"/>
      </g>
      <g id="Group_27" data-name="Group 27" transform="translate(33.305 -47.842)" clip-path="url(#clip-path-10)">
        <path id="Path_166" data-name="Path 166" d="M34.621-29.082H60.116V-49.556H34.621Z" transform="translate(-38.807 45.37)"/>
      </g>
      <g id="Group_28" data-name="Group 28" transform="translate(39.919 -38.168)" clip-path="url(#clip-path-11)">
        <path id="Path_168" data-name="Path 168" d="M42.521-19.02H61.343V-38H42.521Z" transform="translate(-46.707 33.814)"/>
      </g>
      <g id="Group_29" data-name="Group 29" transform="translate(238.129 -63.29)" clip-path="url(#clip-path-12)">
        <path id="Path_170" data-name="Path 170" d="M279.286-35.108h25.463v-32.9H279.286Z" transform="translate(-283.471 63.823)"/>
      </g>
      <g id="Group_30" data-name="Group 30" transform="translate(238.032 -63.76)" clip-path="url(#clip-path-13)">
        <path id="Path_172" data-name="Path 172" d="M279.169-34.637h25.565V-68.57H279.169Z" transform="translate(-283.355 64.384)"/>
      </g>
      <g id="Group_31" data-name="Group 31" transform="translate(242.937 -53.836)" clip-path="url(#clip-path-14)">
        <path id="Path_174" data-name="Path 174" d="M285.028-36.587H301.3V-56.716H285.028Z" transform="translate(-289.214 52.53)"/>
      </g>
      <g id="Group_32" data-name="Group 32" transform="translate(233.179 -57.171)" clip-path="url(#clip-path-15)">
        <path id="Path_176" data-name="Path 176" d="M273.372-34.327h13.4V-60.7h-13.4Z" transform="translate(-277.558 56.514)"/>
      </g>
      <g id="Group_33" data-name="Group 33" transform="translate(233.134 -57.701)" clip-path="url(#clip-path-16)">
        <path id="Path_178" data-name="Path 178" d="M273.319-33.908h13.4V-61.333h-13.4Z" transform="translate(-277.505 57.148)"/>
      </g>
      <g id="Group_34" data-name="Group 34" transform="translate(237.886 -49.469)" clip-path="url(#clip-path-17)">
        <path id="Path_180" data-name="Path 180" d="M279-39.914h8.577V-51.5H279Z" transform="translate(-283.181 47.314)"/>
      </g>
      <g id="Group_35" data-name="Group 35" transform="translate(237.873 -49.988)" clip-path="url(#clip-path-18)">
        <path id="Path_182" data-name="Path 182" d="M278.979-39.521h8.59v-12.6h-8.59Z" transform="translate(-283.165 47.934)"/>
      </g>
      <g id="Group_36" data-name="Group 36" transform="translate(187.4 -63.167)" clip-path="url(#clip-path-19)">
        <path id="Path_184" data-name="Path 184" d="M218.688-52.406H234.9V-67.862H218.688Z" transform="translate(-222.874 63.677)"/>
      </g>
      <g id="Group_37" data-name="Group 37" transform="translate(187.28 -63.686)" clip-path="url(#clip-path-20)">
        <path id="Path_186" data-name="Path 186" d="M218.545-51.954h16.336V-68.483H218.545Z" transform="translate(-222.731 64.297)"/>
      </g>
      <g id="Group_38" data-name="Group 38" transform="translate(59.094 -63.167)" clip-path="url(#clip-path-21)">
        <path id="Path_188" data-name="Path 188" d="M65.426-52.318H81.782V-67.862H65.426Z" transform="translate(-69.612 63.676)"/>
      </g>
      <g id="Group_39" data-name="Group 39" transform="translate(59.184 -63.768)" clip-path="url(#clip-path-22)">
        <path id="Path_190" data-name="Path 190" d="M65.533-51.915H81.968V-68.58H65.533Z" transform="translate(-69.719 64.394)"/>
      </g>
      <g id="Group_40" data-name="Group 40" transform="translate(233.361 -63.408)" clip-path="url(#clip-path-23)">
        <path id="Path_192" data-name="Path 192" d="M273.59-55.467h13.06V-68.15H273.59Z" transform="translate(-277.776 63.964)"/>
      </g>
      <g id="Group_41" data-name="Group 41" transform="translate(233.343 -63.843)" clip-path="url(#clip-path-24)">
        <path id="Path_194" data-name="Path 194" d="M273.569-54.974h13.089v-13.7H273.569Z" transform="translate(-277.754 64.484)"/>
      </g>
      <g id="Group_42" data-name="Group 42" transform="translate(31.956 -33.496)" clip-path="url(#clip-path-25)">
        <path id="Path_196" data-name="Path 196" d="M33.01-23.211h8.782V-32.42H33.01Z" transform="translate(-37.196 28.234)"/>
      </g>
      <g id="Group_43" data-name="Group 43" transform="translate(31.998 -33.982)" clip-path="url(#clip-path-26)">
        <path id="Path_198" data-name="Path 198" d="M33.06-22.778h8.782V-33H33.06Z" transform="translate(-37.246 28.814)"/>
      </g>
      <g id="Group_44" data-name="Group 44" transform="translate(32.228 -33.496)" clip-path="url(#clip-path-27)">
        <path id="Path_200" data-name="Path 200" d="M33.334-22.692h8.645V-32.42H33.334Z" transform="translate(-37.52 28.234)"/>
      </g>
      <g id="Group_45" data-name="Group 45" transform="translate(32.214 -33.982)" clip-path="url(#clip-path-28)">
        <path id="Path_202" data-name="Path 202" d="M33.318-22.22h8.591V-33H33.318Z" transform="translate(-37.503 28.814)"/>
      </g>
      <g id="Group_46" data-name="Group 46" transform="translate(238.049 -46.255)" clip-path="url(#clip-path-29)">
        <path id="Path_204" data-name="Path 204" d="M279.19-38.845H287.6V-47.66H279.19Z" transform="translate(-283.376 43.474)"/>
      </g>
      <g id="Group_47" data-name="Group 47" transform="translate(238.088 -46.782)" clip-path="url(#clip-path-30)">
        <path id="Path_206" data-name="Path 206" d="M279.236-38.319h8.417V-48.29h-8.417Z" transform="translate(-283.422 44.104)"/>
      </g>
      <g id="Group_48" data-name="Group 48" transform="translate(238.035 -46.807)" clip-path="url(#clip-path-31)">
        <path id="Path_208" data-name="Path 208" d="M279.173-39.3H287.6V-48.32h-8.428Z" transform="translate(-283.359 44.134)"/>
      </g>
      <g id="Group_49" data-name="Group 49" transform="translate(238.041 -47.326)" clip-path="url(#clip-path-32)">
        <path id="Path_210" data-name="Path 210" d="M279.18-38.877h8.464V-48.94H279.18Z" transform="translate(-283.366 44.754)"/>
      </g>
      <g id="Group_50" data-name="Group 50" transform="translate(32.417 -34.116)" clip-path="url(#clip-path-33)">
        <path id="Path_212" data-name="Path 212" d="M33.56-24.211h8.581V-33.16H33.56Z" transform="translate(-37.746 28.974)"/>
      </g>
      <g id="Group_51" data-name="Group 51" transform="translate(32.409 -34.643)" clip-path="url(#clip-path-34)">
        <path id="Path_214" data-name="Path 214" d="M33.55-23.777h8.589V-33.79H33.55Z" transform="translate(-37.736 29.604)"/>
      </g>
      <g id="Group_52" data-name="Group 52" transform="translate(32.224 -34.367)" clip-path="url(#clip-path-35)">
        <path id="Path_216" data-name="Path 216" d="M33.33-24.251h8.9V-33.46h-8.9Z" transform="translate(-37.516 29.274)"/>
      </g>
      <g id="Group_53" data-name="Group 53" transform="translate(32.18 -34.861)" clip-path="url(#clip-path-36)">
        <path id="Path_218" data-name="Path 218" d="M33.277-23.786h8.86V-34.05h-8.86Z" transform="translate(-37.462 29.864)"/>
      </g>
      <g id="Group_54" data-name="Group 54" transform="translate(32.417 -34.065)" clip-path="url(#clip-path-37)">
        <path id="Path_220" data-name="Path 220" d="M33.56-23.632h10V-33.1h-10Z" transform="translate(-38.56 28.914)"/>
      </g>
      <g id="Group_55" data-name="Group 55" transform="translate(32.425 -33.5)" clip-path="url(#clip-path-38)">
        <path id="Path_222" data-name="Path 222" d="M33.57-24.049h8.447v-8.375H33.57Z" transform="translate(-37.756 28.239)"/>
      </g>
      <g id="Group_56" data-name="Group 56" transform="translate(32.422 -34.049)" clip-path="url(#clip-path-39)">
        <path id="Path_224" data-name="Path 224" d="M33.566-23.628h8.453V-33.08H33.566Z" transform="translate(-37.751 28.894)"/>
      </g>
      <g id="Group_57" data-name="Group 57" transform="translate(32.224 -33.554)" clip-path="url(#clip-path-40)">
        <path id="Path_226" data-name="Path 226" d="M33.33-24.051h8.564v-8.438H33.33Z" transform="translate(-37.516 28.303)"/>
      </g>
      <g id="Group_58" data-name="Group 58" transform="translate(32.222 -34.072)" clip-path="url(#clip-path-41)">
        <path id="Path_228" data-name="Path 228" d="M33.327-23.6H41.9v-9.508H33.327Z" transform="translate(-37.512 28.921)"/>
      </g>
    </g>
  </g>
</svg>
