<svg xmlns="http://www.w3.org/2000/svg" xmlns:xlink="http://www.w3.org/1999/xlink" width="382" height="135" viewBox="0 0 382 135">
  <defs>
    <clipPath id="clip-path">
      <path id="Path_255" data-name="Path 255" d="M185.644-10.229c-.587-.163-1.165-.35-1.752-.489-6.519-1.565-10.439-5.916-12.484-11.963a29.508,29.508,0,0,1,0-19.159c2.657-7.962,9.078-12.452,17.227-12.322,7.888.13,14.212,5,16.616,12.949a29.687,29.687,0,0,1,0,17.977c-2.168,6.739-6.446,11.409-13.772,12.721a1.826,1.826,0,0,0-.522.285Zm15.06-21.88c0-4.547-.676-8.9-3.447-12.7A11.156,11.156,0,0,0,188.15-49.4a11.156,11.156,0,0,0-9.034,4.73,18.449,18.449,0,0,0-3.26,10.089c-.212,4.938.139,9.706,2.754,14.147,4.2,7.106,15.092,7.228,19.3-.163A22.7,22.7,0,0,0,200.7-32.109Z" transform="translate(-169.809 54.163)" fill="none"/>
    </clipPath>
    <clipPath id="clip-path-2">
      <path id="Path_257" data-name="Path 257" d="M99.9-10.482c-3.732-8.663-7.285-16.926-10.847-25.189l-.383.049q-.815,4.7-1.7,9.4c-.733,4.075-1.434,8.092-2.225,12.118a2.608,2.608,0,0,0,1.336,3.137h-10c2.323-.978,2.811-2.82,3.178-4.808q3.439-18.947,6.943-37.877a3.072,3.072,0,0,1,.293-.554l13.682,30.323L113.226-54h.285q1.426,7.693,2.86,15.386,2.233,12.142,4.466,24.26v.155c.35,1.63,1.9,3.178,3.1,3.1s2.192-1.63,2.2-3.529V-49.467a4.287,4.287,0,0,0-1.785-3.993h16.722a8.027,8.027,0,0,1,1.687.285c5.9,1.41,9.461,7.1,8.5,13.568-.872,5.9-4.686,9.51-10.643,9.95-2.445.187-4.987.2-7.481.2-.994,0-1.385.285-1.377,1.328.049,4.58-.065,9.168.081,13.748,0,1.157.815,2.3,1.247,3.4H113.747c1.5-.913,1.508-2.127,1.231-3.6-1.239-6.69-2.371-13.405-3.561-20.112a8.15,8.15,0,0,0-.407-1.149ZM131.8-41.6v5.46c0,.953.342,1.271,1.279,1.247,1.98-.049,3.96,0,5.933,0a6.421,6.421,0,0,0,4.639-1.88,6.421,6.421,0,0,0,1.88-4.639c.065-3.952-2.233-6.446-6.242-6.642-2.078-.106-4.164,0-6.242-.073-.97,0-1.271.359-1.247,1.279C131.83-45.132,131.8-43.363,131.8-41.6Z" transform="translate(-76.09 54.21)" fill="none"/>
    </clipPath>
    <clipPath id="clip-path-3">
      <path id="Path_259" data-name="Path 259" d="M43.334-53.4H67.676v7.2c-.945-1.793-2.445-1.866-4.075-1.842-3.643.065-7.285,0-10.928,0H50.929v12.973h4.686c2.233,0,4.474-.065,6.715,0a3.83,3.83,0,0,0,3.83-1.923v9.526c-1.035-2.4-2.885-2.135-4.661-2.127H50.9v13.308h8.956c1.451,0,2.917-.09,4.368,0A3.211,3.211,0,0,0,67.7-18.318v7.456H43c2.314-1.051,2.119-2.893,2.119-4.7V-49.13C45.094-50.76,44.907-52.218,43.334-53.4Z" transform="translate(-43 53.4)" fill="none"/>
    </clipPath>
    <clipPath id="clip-path-4">
      <path id="Path_261" data-name="Path 261" d="M21.3-10.815H11.769c1.825-.815,2-2.151,1.988-3.675V-48.008H3.6c-1.426,0-2.689.163-3.586,1.842v-7.2H33.218v6.821c-1.035-1.434-2.445-1.524-3.92-1.5-3.178.065-6.348,0-9.779,0v33.077C19.486-13.374,19.56-11.915,21.3-10.815Z" transform="translate(-0.01 53.37)" fill="none"/>
    </clipPath>
    <clipPath id="clip-path-5">
      <path id="Path_263" data-name="Path 263" d="M301.6-40.756c-2.445-7.693-7.131-12.925-15.581-13.707-7.432-.685-13.226,2.16-17.064,8.663a24.292,24.292,0,0,0-3.1,11.466A27.407,27.407,0,0,0,269-19.144c6.364,11.368,22.426,10.9,28.815,2.363,3.52-4.727,4.824-9.934,4.824-16.478A22.817,22.817,0,0,0,301.6-40.756Zm-8.524,20.878a11.107,11.107,0,0,1-9.03,4.419,11.107,11.107,0,0,1-8.9-4.68,16.779,16.779,0,0,1-3.072-8.214c-.522-5.81-.522-11.547,3.08-16.624a11.123,11.123,0,0,1,8.763-4.657,11.123,11.123,0,0,1,8.994,4.193c3.007,3.806,3.659,8.271,3.74,12.827C296.581-27.986,295.9-23.626,293.077-19.878Z" transform="translate(-265.807 54.562)" fill="none"/>
    </clipPath>
    <clipPath id="clip-path-6">
      <path id="Path_265" data-name="Path 265" d="M257.463-18.036c-.473-.978-.864-1.092-1.8-.3a11.556,11.556,0,0,1-9.517,2.817,11.556,11.556,0,0,1-8.191-5.6,19.76,19.76,0,0,1-2.673-11.6,20.3,20.3,0,0,1,.962-7.611c2.844-8.369,9.274-10.529,15.7-8.638,1.027.3,2,1.565,2.909,1.068s1.288-1.842,2.021-2.714c.913-1.084.579-1.63-.595-2.143-8.54-3.944-20.846-2.013-25.482,10.056a29.182,29.182,0,0,0-.717,18.246c3.2,12.085,16.722,17.822,27.169,11.621,2.51-1.483,2.51-1.483.953-4C257.952-17.238,257.667-17.621,257.463-18.036Z" transform="translate(-228.946 54.608)" fill="none"/>
    </clipPath>
    <clipPath id="clip-path-7">
      <path id="Path_267" data-name="Path 267" d="M223.351-9.36a3.48,3.48,0,0,0-2.523,1.047,3.48,3.48,0,0,0-.989,2.546,3.4,3.4,0,0,0,.9,2.493,3.4,3.4,0,0,0,2.421,1.084,3.48,3.48,0,0,0,2.516-1.065,3.479,3.479,0,0,0,.972-2.554A3.692,3.692,0,0,0,223.351-9.36Z" transform="translate(-219.834 9.36)" fill="none"/>
    </clipPath>
    <clipPath id="clip-Artboard_7">
      <rect width="382" height="135"/>
    </clipPath>
  </defs>
  <g id="Artboard_7" data-name="Artboard – 7" clip-path="url(#clip-Artboard_7)">
    <g id="Group_95" data-name="Group 95" transform="translate(63.99 99.669)" opacity="0.699">
      <g id="Group_74" data-name="Group 74" transform="translate(138.382 -54.246)" clip-path="url(#clip-path)">
        <path id="Path_254" data-name="Path 254" d="M164.809-7.079h44.984V-59.163H164.809Z" transform="translate(-168.883 55.089)"/>
      </g>
      <g id="Group_75" data-name="Group 75" transform="translate(62.009 -54.284)" clip-path="url(#clip-path-2)">
        <path id="Path_256" data-name="Path 256" d="M71.09-7.333h83.473V-59.21H71.09Z" transform="translate(-75.165 55.135)"/>
      </g>
      <g id="Group_76" data-name="Group 76" transform="translate(35.043 -53.624)" clip-path="url(#clip-path-3)">
        <path id="Path_258" data-name="Path 258" d="M38-7.712H70.849V-58.4H38Z" transform="translate(-42.075 54.325)"/>
      </g>
      <g id="Group_77" data-name="Group 77" transform="translate(0.01 -53.599)" clip-path="url(#clip-path-4)">
        <path id="Path_260" data-name="Path 260" d="M-4.99-7.666H36.367v-50.7H-4.99Z" transform="translate(0.915 54.295)"/>
      </g>
      <g id="Group_78" data-name="Group 78" transform="translate(216.612 -54.571)" clip-path="url(#clip-path-5)">
        <path id="Path_262" data-name="Path 262" d="M260.807-7.334h44.988V-59.562H260.807Z" transform="translate(-264.882 55.487)" fill="#919497"/>
      </g>
      <g id="Group_79" data-name="Group 79" transform="translate(186.573 -54.608)" clip-path="url(#clip-path-6)">
        <path id="Path_264" data-name="Path 264" d="M223.946-7.164h38.469V-59.608H223.946Z" transform="translate(-228.021 55.534)" fill="#919497"/>
      </g>
      <g id="Group_80" data-name="Group 80" transform="translate(179.148 -17.735)" clip-path="url(#clip-path-7)">
        <path id="Path_266" data-name="Path 266" d="M214.834.96H229.8V-14.36H214.834Z" transform="translate(-218.909 10.286)" fill="#939497"/>
      </g>
    </g>
  </g>
</svg>
