<svg xmlns="http://www.w3.org/2000/svg" xmlns:xlink="http://www.w3.org/1999/xlink" width="382" height="135" viewBox="0 0 382 135">
  <defs>
    <clipPath id="clip-path">
      <path id="Path_117" data-name="Path 117" d="M31.913-42.434a40.177,40.177,0,0,0-4.9-.883,6.13,6.13,0,0,1,.584-.539,15.65,15.65,0,0,0,4.566-4.76c2.245-3.623,3.188-7.485,1.257-11.5a5.928,5.928,0,0,0-3.856-3.146,5.928,5.928,0,0,0-4.894.9c-2.245,1.594-4.154,3.652-6.31,5.381a7.485,7.485,0,0,0-2.994,6.227c.06,5.419,0,10.83,0,16.249,0,2.777.217,5.606-2.066,7.949a12.806,12.806,0,0,0,4.266-1.924,9.782,9.782,0,0,0,4.176-8.435V-55.8a4.491,4.491,0,0,1,.217-1.617,3.048,3.048,0,0,1,2.38-2.283,2.628,2.628,0,0,1,2.732,1.564,8.982,8.982,0,0,1,1.055,2.956,15.336,15.336,0,0,1-.464,7.559,7.44,7.44,0,0,1-2.807,4.214V-51.5a.748.748,0,0,1,.247-.561c.853-.9.748-1.123-.217-1.916-.748-.614-.936.15-1.295.427s-.711.711-.12,1.145a1.549,1.549,0,0,1,.539,1.452v26.016c0,.3.1.644-.135.913-8.45-4.2-15.351,0-19.5,5.988a2.53,2.53,0,0,0,1.362-.322c3.6-1.347,7.125-1.579,10.666.15a5.119,5.119,0,0,0,1.894.442A20.366,20.366,0,0,0,30.738-21.05c4.947-3.069,7.634-7.485,7.38-13.472A8.435,8.435,0,0,0,31.913-42.434Zm-3.69,17.671a9.85,9.85,0,0,1-1.729,1.5,1.085,1.085,0,0,1-1.227.135c-.494-.225-.419-.621-.419-1.018v-16.7c0-1.295.172-1.392,1.452-.876a7,7,0,0,1,4.371,5.052A12.993,12.993,0,0,1,28.223-24.763Z" transform="translate(-4.37 63.451)" fill="none"/>
    </clipPath>
    <clipPath id="clip-path-2">
      <path id="Path_119" data-name="Path 119" d="M294.374-11.711a7.169,7.169,0,0,1-.98-.127,2.967,2.967,0,0,1-2.447-1.924,9.476,9.476,0,0,1-.449-2.792c0-5.164.037-10.321-.037-15.486,0-1.819-.382-3.667-2.365-4.431-3.787-1.452-7.582-.748-10.172,2.612-.651.846-1.04,1.864-1.729,2.679-.262-.172-.187-.374-.217-.539-.419-2.3-1.265-4.206-3.742-5.03a9.73,9.73,0,0,0-3.45-.352,6.684,6.684,0,0,0-4.566,2.245,12.867,12.867,0,0,0-2.41,3.742l-.329-.1c0-1.632-.06-3.263,0-4.887.06-.951-.314-1.168-1.063-.951-2.365.621-4.82.711-7.2,1.242-.284.06-.479.12-.487.457s.037.5.374.561.569.127.853.18a3.428,3.428,0,0,1,3.129,3.5c.045,5.194.067,10.389,0,15.583,0,1.5-.434,2.994-2.193,3.57-.5.172-1.01.112-1.5.24-.314.09-.659.075-.621.569s.419.4.748.412h11.421c.307,0,.689.1.748-.412s-.307-.509-.629-.569l-.329-.052c-2.3-.3-3.181-1.3-3.181-3.615,0-2.492.06-4.977,0-7.485a13.973,13.973,0,0,1,1.108-5.943,10.673,10.673,0,0,1,3.922-5.127,3.091,3.091,0,0,1,3.009-.3,3.091,3.091,0,0,1,1.826,2.411,27.917,27.917,0,0,1,.217,2.949V-15.6c0,2.545-.846,3.42-3.361,3.855-.359.06-1.018-.1-.943.614s.621.382.966.382h10.651c.464,0,1.295.389,1.37-.374.09-.906-.846-.576-1.325-.644a2.927,2.927,0,0,1-2.769-2.717,65.536,65.536,0,0,1-.12-9.311,13.907,13.907,0,0,1,1.16-5.426,9.719,9.719,0,0,1,3.8-4.79,3.181,3.181,0,0,1,4.049.778,5.382,5.382,0,0,1,.958,2.994c0,4.94.045,9.88,0,14.819,0,2.455-.838,3.286-3.256,3.645-.344.052-.906-.067-.883.554,0,.748.644.449,1,.457h11.309c.262,0,.531,0,.561-.352S294.741-11.681,294.374-11.711Z" transform="translate(-252.729 37.186)" fill="none"/>
    </clipPath>
    <clipPath id="clip-path-3">
      <path id="Path_121" data-name="Path 121" d="M116.237-34.961a20.91,20.91,0,0,0-3.413-3.974c-.442-.479-.748-.509-1.265-.075q-2.47,2.133-5.022,4.161c-.217.172-.4.666-.748.442s-.187-.6-.232-.921a6.055,6.055,0,0,0-1.751-3.765.621.621,0,0,0-.492-.274.621.621,0,0,0-.511.236c-1.5,1.28-2.994,2.537-4.536,3.742-.434.344-.584.651-.225,1.07a2.747,2.747,0,0,1,.457,1.961v14.49a8.953,8.953,0,0,0,2.193,6.452c.3.314.584.853,1.16.374,1.5-1.22,2.949-2.462,4.446-3.66.374-.307.314-.449,0-.748a2.575,2.575,0,0,1-.7-2.013V-31.4a1.317,1.317,0,0,1,.217-.958A3.915,3.915,0,0,1,109.224-33a2.118,2.118,0,0,1,1.317,2.186v9.872c0,3.293.045,6.586,0,9.88,0,1.063.412.988,1.048.606a20.849,20.849,0,0,0,2.747-1.751A7.335,7.335,0,0,0,117.4-18.09V-31.039a8.525,8.525,0,0,0-1.16-3.922Z" transform="translate(-97.841 39.366)" fill="none"/>
    </clipPath>
    <clipPath id="clip-path-4">
      <path id="Path_123" data-name="Path 123" d="M236.232-35.83a12.3,12.3,0,0,0-9.73-.666,9.872,9.872,0,0,0-6.429,6.107,18.375,18.375,0,0,0-.112,13.143,10.2,10.2,0,0,0,5.426,5.988,12.791,12.791,0,0,0,7.036.928,10.186,10.186,0,0,0,7.208-4.027c2.118-2.732,2.687-5.913,2.657-9.258a20.615,20.615,0,0,0-.344-4.244C241.149-31.3,239.495-34.153,236.232-35.83Zm-.3,20a5.65,5.65,0,0,1-5.164,3.742,5.314,5.314,0,0,1-5.239-3.136,15.088,15.088,0,0,1-1.557-5.748,22.115,22.115,0,0,1,.973-9.835c1.025-2.709,2.829-4.64,5.988-4.431a5.381,5.381,0,0,1,4.738,3.346,15.718,15.718,0,0,1,1.5,7.53C237.167-20.973,237.062-18.338,235.932-15.831Z" transform="translate(-218.8 37.197)" fill="none"/>
    </clipPath>
    <clipPath id="clip-path-5">
      <path id="Path_125" data-name="Path 125" d="M159.368-26.9A34.482,34.482,0,0,1,153.7-30a2.665,2.665,0,0,1-.831-3.48c.322-.554.576-.606.9,0,.913,1.714,3.278,1.864,4.491,1.295,2.028-.928,3.286-2.679,4.932-4.3a4.574,4.574,0,0,0-.584-.112,1.684,1.684,0,0,0-.434.06,5.158,5.158,0,0,1-5.883-1.729c-.5-.561-.689-.4-1.07-.067-1.789,1.542-3.548,3.114-5.389,4.588a5.239,5.239,0,0,0-2.141,4.341c.052,3.241,1.976,5.239,4.64,6.736,1.721.943,3.518,1.736,5.149,2.837a2.762,2.762,0,0,1,1.5,2.6,1.886,1.886,0,0,1-1.5,1.706,3.473,3.473,0,0,1-3.608-1.5,7.544,7.544,0,0,1-1.07-3.817c-1.939,1.587-3.742,3.084-5.583,4.566-.494.4-.427.831-.225,1.355a6.5,6.5,0,0,0,7.829,4.117,11.975,11.975,0,0,0,7.889-6.227,6.408,6.408,0,0,0,1.025-4.266,7.657,7.657,0,0,0-4.364-5.591Z" transform="translate(-146.837 38.643)" fill="none"/>
    </clipPath>
    <clipPath id="clip-path-6">
      <path id="Path_127" data-name="Path 127" d="M82.805-27.129a29.19,29.19,0,0,1-5.119-2.814,2.584,2.584,0,0,1-1.018-3.293c.4-.816.651-.7,1.123-.09a3.57,3.57,0,0,0,4.67.988A7.919,7.919,0,0,0,84.8-34.082a15.456,15.456,0,0,0,2.32-2.485,3.421,3.421,0,0,0-.9,0,5.239,5.239,0,0,1-6.107-1.871c-.389-.479-.584-.195-.868,0-1.909,1.6-3.81,3.129-5.681,4.753A5.449,5.449,0,0,0,71.7-28.446a7.612,7.612,0,0,0,4.161,5.539c1.871,1.048,3.742,2.043,5.628,3.106a2.709,2.709,0,0,1,1.437,2.694,2.043,2.043,0,0,1-2.066,1.632,3.465,3.465,0,0,1-2.627-1.093c-1.175-1.145-1.2-2.679-1.542-4.244-1.819,1.5-3.525,2.844-5.194,4.244-.412.352-.928.689-.584,1.452,1.624,3.7,4.2,5.1,7.919,4.251a11.788,11.788,0,0,0,7.964-6.422,5.939,5.939,0,0,0,.748-4.73,8.323,8.323,0,0,0-4.738-5.112Z" transform="translate(-70.799 38.701)" fill="none"/>
    </clipPath>
    <clipPath id="clip-path-7">
      <path id="Path_129" data-name="Path 129" d="M207.675-35.642a12.327,12.327,0,0,0-6.736-1.5,13.293,13.293,0,0,0-4.221.457,9.425,9.425,0,0,0-7.14,6.953A20.508,20.508,0,0,0,189.7-18.5a10.359,10.359,0,0,0,6.115,7c3.458,1.5,7.1,1.5,10.748,1.085a11.654,11.654,0,0,0,2.126-.486c.748-.21.576-.868.509-1.377-.075-.644-.561-.367-.936-.3-5.628.966-9.887-1.145-12.686-5.988A14.707,14.707,0,0,1,194.2-30.448a6.274,6.274,0,0,1,7.178-4.76,2.994,2.994,0,0,1,2.8,2.373,11.426,11.426,0,0,0,.591,1.879,2.53,2.53,0,0,0,2.642,1.7,2.373,2.373,0,0,0,2.245-1.624,4.147,4.147,0,0,0-1.983-4.76Z" transform="translate(-188.857 37.165)" fill="none"/>
    </clipPath>
    <clipPath id="clip-path-8">
      <path id="Path_131" data-name="Path 131" d="M5.887-32.472c.748-.254,1.07-.165,1.055.748-.037,2.777,0,5.561,0,8.338a5.419,5.419,0,0,1-1.213,3.338c.082.2.284.172.442.217a18.391,18.391,0,0,0,1.781-.831c3.233-1.879,5.239-4.536,5.239-8.428V-44.058c0-1.916-.157-3.855.614-5.666a.472.472,0,0,0-.576.06,28.014,28.014,0,0,0-4.962,4.251,4.828,4.828,0,0,0-1.3,3.286,5.351,5.351,0,0,1-.082,1.841c-.262.629-1.108.344-1.662.6-1.968.9-2.657,2.53-2.814,4.543a14.221,14.221,0,0,0,1.033,5.905,1.5,1.5,0,0,0,.4-.921,3.151,3.151,0,0,1,2.043-2.313Z" transform="translate(-2.395 49.796)" fill="none"/>
    </clipPath>
    <clipPath id="clip-path-9">
      <path id="Path_133" data-name="Path 133" d="M62.085-17.638V-39.71c-2.62,2.245-4.977,4.259-7.372,6.257-.359.3-.157.4,0,.666a3.847,3.847,0,0,1,.546,2.081c0,4.648-.045,9.3,0,13.944A8.3,8.3,0,0,0,57.5-11.448c.367.427.748.681,1.37.157,1.22-1.093,2.507-2.1,3.742-3.144.457-.374.651-.748.1-1.213a2.462,2.462,0,0,1-.636-1.991Z" transform="translate(-54.512 39.71)" fill="none"/>
    </clipPath>
    <clipPath id="clip-path-10">
      <path id="Path_135" data-name="Path 135" d="M138.052-17.987V-39.43a6.664,6.664,0,0,0-.644.4l-6.519,5.479c-.269.225-.5.4-.15.846a2.941,2.941,0,0,1,.479,1.871c0,4.536-.052,9.064,0,13.6a8.682,8.682,0,0,0,2.373,5.943c.442.472.786.516,1.28.1,1.265-1.093,2.56-2.148,3.84-3.226.352-.3.591-.554.112-1.04a3.443,3.443,0,0,1-.771-2.522Z" transform="translate(-130.562 39.43)" fill="none"/>
    </clipPath>
    <clipPath id="clip-path-11">
      <path id="Path_137" data-name="Path 137" d="M6.691-57.336a5.935,5.935,0,0,0,4.536,1.5c3.81-.472,5.86-3.188,7.664-6.272-2.829,1.766-5.239,1.048-7.619-.883a6.07,6.07,0,0,0-3.316-1.265C4.019-64.633,1.22-61.048,0-57.523,2.29-58.967,4.491-59.274,6.691-57.336Z" transform="translate(0 64.286)" fill="none"/>
    </clipPath>
    <clipPath id="clip-path-12">
      <path id="Path_139" data-name="Path 139" d="M178.979-10.62A3.578,3.578,0,0,0,175.494-7.1a3.578,3.578,0,0,0,3.365,3.631,3.69,3.69,0,0,0,3.667-3.57,3.652,3.652,0,0,0-3.548-3.578Z" transform="translate(-175.493 10.62)" fill="none"/>
    </clipPath>
    <clipPath id="clip-path-13">
      <path id="Path_141" data-name="Path 141" d="M58.541-43.575a16.721,16.721,0,0,1,4.019-4.588c.322-.247.322-.412,0-.666a17.215,17.215,0,0,1-4.019-4.67,15.62,15.62,0,0,1-4.491,4.962A17.035,17.035,0,0,1,58.541-43.575Z" transform="translate(-54.05 53.5)" fill="none"/>
    </clipPath>
    <clipPath id="clip-path-14">
      <path id="Path_143" data-name="Path 143" d="M134.264-44.072c.284.486.419.494.748,0a13.891,13.891,0,0,1,3.488-3.87l.546-.389a2.528,2.528,0,0,0-.239-.359,18.33,18.33,0,0,1-3.914-4.341c-.21-.314-.4-.18-.569.1a14.97,14.97,0,0,1-3.645,4.124c-.337.277-.382.382,0,.7a14.714,14.714,0,0,1,3.585,4.042Z" transform="translate(-130.41 53.212)" fill="none"/>
    </clipPath>
    <clipPath id="clip-path-15">
      <path id="Path_145" data-name="Path 145" d="M6.677-10.08c-.2.075-.5.269-.359.4s.561.037.8-.187C6.856-9.706,6.662-9.691,6.677-10.08Z" transform="translate(-6.281 10.08)" fill="none"/>
    </clipPath>
    <clipPath id="clip-path-16">
      <path id="Path_147" data-name="Path 147" d="M6.81-10.08c0,.389.18.374.442.217C7.094-9.908,6.892-9.878,6.81-10.08Z" transform="translate(-6.81 10.08)" fill="none"/>
    </clipPath>
    <clipPath id="clip-Artboard_8">
      <rect width="382" height="135"/>
    </clipPath>
  </defs>
  <g id="Artboard_8" data-name="Artboard – 8" clip-path="url(#clip-Artboard_8)">
    <g id="Group_92" data-name="Group 92" transform="translate(75 106.286)" opacity="0.699">
      <g id="Group_1" data-name="Group 1" transform="translate(3.271 -63.661)" clip-path="url(#clip-path)">
        <path id="Path_116" data-name="Path 116" d="M-.63-15.239H40.619V-68.451H-.63Z" transform="translate(-3.112 64.709)"/>
      </g>
      <g id="Group_2" data-name="Group 2" transform="translate(189.157 -44.003)" clip-path="url(#clip-path-2)">
        <path id="Path_118" data-name="Path 118" d="M247.729-8.162h49.562V-42.186H247.729Z" transform="translate(-251.471 38.444)" fill="#919497"/>
      </g>
      <g id="Group_3" data-name="Group 3" transform="translate(73.23 -45.634)" clip-path="url(#clip-path-3)">
        <path id="Path_120" data-name="Path 120" d="M92.841-7.714h27.041V-44.366H92.841Z" transform="translate(-96.583 40.624)"/>
      </g>
      <g id="Group_4" data-name="Group 4" transform="translate(163.763 -44.011)" clip-path="url(#clip-path-4)">
        <path id="Path_122" data-name="Path 122" d="M213.8-7.7h30.976V-42.2H213.8Z" transform="translate(-217.543 38.455)" fill="#919497"/>
      </g>
      <g id="Group_5" data-name="Group 5" transform="translate(109.901 -45.093)" clip-path="url(#clip-path-5)">
        <path id="Path_124" data-name="Path 124" d="M141.837-8.1h24.456v-35.54H141.837Z" transform="translate(-145.579 39.9)"/>
      </g>
      <g id="Group_6" data-name="Group 6" transform="translate(52.99 -45.137)" clip-path="url(#clip-path-6)">
        <path id="Path_126" data-name="Path 126" d="M65.8-8.139H90.256V-43.7H65.8Z" transform="translate(-69.542 39.959)"/>
      </g>
      <g id="Group_7" data-name="Group 7" transform="translate(141.352 -43.987)" clip-path="url(#clip-path-7)">
        <path id="Path_128" data-name="Path 128" d="M183.857-7.7H212.3V-42.165H183.857Z" transform="translate(-187.599 38.423)" fill="#919497"/>
      </g>
      <g id="Group_8" data-name="Group 8" transform="translate(1.793 -53.441)" clip-path="url(#clip-path-8)">
        <path id="Path_130" data-name="Path 130" d="M-2.6-17.346H16.29V-54.8H-2.6Z" transform="translate(-1.138 51.053)"/>
      </g>
      <g id="Group_9" data-name="Group 9" transform="translate(40.8 -45.892)" clip-path="url(#clip-path-9)">
        <path id="Path_132" data-name="Path 132" d="M49.512-8.513H65.538v-36.2H49.512Z" transform="translate(-53.254 40.968)"/>
      </g>
      <g id="Group_10" data-name="Group 10" transform="translate(97.72 -45.682)" clip-path="url(#clip-path-10)">
        <path id="Path_134" data-name="Path 134" d="M125.562-8.426h16.015v-36H125.562Z" transform="translate(-129.304 40.688)"/>
      </g>
      <g id="Group_11" data-name="Group 11" transform="translate(0 -64.286)" clip-path="url(#clip-path-11)">
        <path id="Path_136" data-name="Path 136" d="M-5-53.327H21.376V-69.286H-5Z" transform="translate(1.258 65.544)"/>
      </g>
      <g id="Group_12" data-name="Group 12" transform="translate(131.35 -24.119)" clip-path="url(#clip-path-12)">
        <path id="Path_138" data-name="Path 138" d="M170.493-.988h14.518V-15.62H170.493Z" transform="translate(-174.236 11.878)" fill="#919497"/>
      </g>
      <g id="Group_13" data-name="Group 13" transform="translate(40.454 -56.213)" clip-path="url(#clip-path-13)">
        <path id="Path_140" data-name="Path 140" d="M49.05-41.091H65.286V-58.5H49.05Z" transform="translate(-52.792 54.758)"/>
      </g>
      <g id="Group_14" data-name="Group 14" transform="translate(97.606 -55.998)" clip-path="url(#clip-path-14)">
        <path id="Path_142" data-name="Path 142" d="M125.41-41.22h16.122V-58.212H125.41Z" transform="translate(-129.152 54.47)"/>
      </g>
      <g id="Group_15" data-name="Group 15" transform="translate(4.701 -23.715)" clip-path="url(#clip-path-15)">
        <path id="Path_144" data-name="Path 144" d="M1.281-7.13H9.6v-7.95H1.281Z" transform="translate(-5.023 11.338)"/>
      </g>
      <g id="Group_16" data-name="Group 16" transform="translate(5.097 -23.715)" clip-path="url(#clip-path-16)">
        <path id="Path_146" data-name="Path 146" d="M1.81-7.275H9.736V-15.08H1.81Z" transform="translate(-5.552 11.338)"/>
      </g>
    </g>
  </g>
</svg>
