<svg xmlns="http://www.w3.org/2000/svg" xmlns:xlink="http://www.w3.org/1999/xlink" width="382" height="135" viewBox="0 0 382 135">
  <defs>
    <clipPath id="clip-Artboard_4">
      <rect width="382" height="135"/>
    </clipPath>
  </defs>
  <g id="Artboard_4" data-name="Artboard – 4" clip-path="url(#clip-Artboard_4)">
    <g id="_016Vpl.tif" data-name="016Vpl.tif" transform="translate(1225.516 1425.272)">
      <g id="Group_90" data-name="Group 90" transform="translate(-1193.776 -1378.208)">
        <path id="Path_298" data-name="Path 298" d="M-1193.776-1330.876v-.884q0-22.763,0-45.525c0-.911,0-.913.9-.913,7.668,0,15.337-.027,23.006.011a21.821,21.821,0,0,1,10.5,2.477,16.922,16.922,0,0,1,8.093,9.69,33.366,33.366,0,0,1,.715,19.9c-2.107,7.808-7.4,12.442-15.114,14.451a26.81,26.81,0,0,1-6.809.8q-10.148-.008-20.3,0Zm15.639-5.62c.347-.3.539-.457.719-.626,1.77-1.667,3.526-3.347,5.318-4.99a1.751,1.751,0,0,1,1.027-.41c1.109-.052,2.224.012,3.334-.028,1.81-.064,3.608-.84,3.487-3.549-.052-1.154.049-2.314.046-3.471q-.018-7.051-.057-14.1c-.009-2.188-1.148-3.324-3.359-3.326q-6.219-.005-12.438,0c-2,0-2.927.93-2.929,2.941q-.007,9.138,0,18.275a3.676,3.676,0,0,0,.12,1.027,3.048,3.048,0,0,0,3.229,2.211c.872.014,1.744,0,2.679,0Z" transform="translate(1193.776 1378.208)" fill="#484848"/>
        <path id="Path_299" data-name="Path 299" d="M-32.919-1315.833c-1.8.483-3.5,1.1-5.261,1.389a14.21,14.21,0,0,1-16.431-11.371c-1.252-7.167,3.984-14.609,11.2-15.59a34.644,34.644,0,0,1,4.372-.089c1.413-.011,2.826.012,4.239-.008,1.368-.02,1.826-.5,1.826-1.864q0-5.42,0-10.841c0-1.024.129-1.177,1.166-1.142,1.618.054,3.233.163,4.851.232.714.031.932.393.93,1.078-.017,6.115-.01,12.231-.01,18.347q0,8.86-.007,17.721a4.7,4.7,0,0,0,.582,2.461c.389.671.271.831-.529.833-1.668.005-3.336,0-5,0C-32.391-1314.677-32.446-1314.713-32.919-1315.833Zm-.043-20.763a3.009,3.009,0,0,1-2.522,1.066c-2.107-.012-4.215.007-6.322-.007a5.988,5.988,0,0,0-3.574,1.146,7.83,7.83,0,0,0-.514,12.15,8.427,8.427,0,0,0,6.506,1.968c4.2-.359,6.425-2.683,6.426-6.9q0-3.89,0-7.781Z" transform="translate(213.176 1358.532)" fill="#484848"/>
        <path id="Path_300" data-name="Path 300" d="M-770.607-1315.473c-.4.018-.631.036-.857.036-2.178,0-4.357-.013-6.535.009a1.861,1.861,0,0,1-1.748-.915c-1.656-2.679-3.3-5.368-4.977-8.031-.791-1.252-1.671-2.447-2.49-3.682a11.329,11.329,0,0,1-.586-1.153c-.891.964-1.843,1.934-2.711,2.975a1.912,1.912,0,0,0-.226,1.124c-.018,2.873-.009,5.747-.01,8.62,0,1.053,0,1.053-1.082,1.053h-4.8c-1.1,0-1.149-.044-1.149-1.125q0-7.925,0-15.851,0-11.332,0-22.664c0-1.006.13-1.118,1.131-1.031,1.407.123,2.816.224,4.221.362,1.35.132,1.583.407,1.585,1.746q.015,8.655.034,17.31c0,.312.046.624.087,1.153a10.9,10.9,0,0,0,.875-.683q5.49-5.421,10.964-10.859a2.808,2.808,0,0,1,2.16-.907c1.691.034,3.383-.006,5.074.024.31.006.835.142.876.313a1.251,1.251,0,0,1-.276.984c-1.289,1.426-2.628,2.807-3.944,4.208q-3.188,3.393-6.367,6.795c-1.223,1.316-1.258,1.929-.259,3.432q5.343,8.045,10.686,16.09A6.463,6.463,0,0,1-770.607-1315.473Z" transform="translate(852.842 1359.199)" fill="#484848"/>
        <path id="Path_301" data-name="Path 301" d="M550.146-1246.919c-.1.008-.345.044-.587.045-1.251.006-2.5,0-3.753,0-1.578,0-1.62-.03-2.05-1.362a34.355,34.355,0,0,1-4.587,1.491c-3.854.7-7.579.382-10.837-2.12-4.32-3.318-5.268-9.139-2.126-13.254a9.256,9.256,0,0,1,6.991-3.658c3.022-.2,6.064-.125,9.1-.16,1.312-.015,1.492-.181,1.493-1.471,0-1.842-.687-2.867-2.471-3.268a15.442,15.442,0,0,0-8.156.36,3.336,3.336,0,0,0-1.092.588.8.8,0,0,1-1.059.083c-.956-.567-1.92-1.121-2.9-1.643-.556-.3-.587-.647-.254-1.118a7.8,7.8,0,0,1,3.218-2.575,17.76,17.76,0,0,1,9.153-1.461,17.692,17.692,0,0,1,3.138.553c4.177,1.162,6.348,4.065,6.354,8.419q.01,7.055,0,14.11c0,1.089-.054,2.181.016,3.266C549.8-1249.056,550-1248.029,550.146-1246.919Zm-6.5-13.482c-.873.084-1.687.218-2.5.231-2.039.033-4.079.016-6.118.01a4.671,4.671,0,0,0-3.158,1.06,3.76,3.76,0,0,0,.69,6.209,8.83,8.83,0,0,0,7.772.465,4.729,4.729,0,0,0,2.85-2.961A13.758,13.758,0,0,0,543.649-1260.4Z" transform="translate(-285.44 1290.665)" fill="#484848"/>
        <path id="Path_302" data-name="Path 302" d="M204.7-1247.167a4.447,4.447,0,0,1-.554.053c-1.39.007-2.78,0-4.17,0-1.08,0-1.311-.184-1.585-1.237a.95.95,0,0,0-.073-.177,31.04,31.04,0,0,1-3.913,1.4c-3.772.826-7.463.7-10.834-1.5a9.555,9.555,0,0,1-3.453-12.755,9.137,9.137,0,0,1,7.641-4.635c3.041-.231,6.108-.129,9.164-.165,1.24-.014,1.391-.155,1.4-1.4.013-2.243-.9-3.253-3.531-3.567a16.292,16.292,0,0,0-6.409.384,19.19,19.19,0,0,0-1.88.855,1.105,1.105,0,0,1-.8.065c-1.048-.542-2.058-1.156-3.094-1.723-.534-.292-.508-.633-.2-1.074a7.445,7.445,0,0,1,3.154-2.543,17.848,17.848,0,0,1,13.008-.733,7.8,7.8,0,0,1,5.681,7.915c.005,5.861-.02,11.722.021,17.582A26.125,26.125,0,0,0,204.7-1247.167Zm-6.379-13.48c-1,.093-1.835.224-2.672.237-2.036.033-4.073.013-6.11.011a4.628,4.628,0,0,0-3.193,1.135c-2.03,1.8-1.559,4.857.979,6.263a8.935,8.935,0,0,0,6.34.723,5.088,5.088,0,0,0,4.339-4.374C198.232-1257.984,198.227-1259.358,198.322-1260.647Z" transform="translate(11.959 1290.906)" fill="#484848"/>
        <path id="Path_303" data-name="Path 303" d="M-582.987-1246.965c-.444.032-.687.063-.93.064-1.3.005-2.6,0-3.893,0-1.422,0-1.576-.118-1.933-1.553-.23.116-.441.225-.655.329-4.406,2.133-8.876,2.419-13.291.159a9.629,9.629,0,0,1-5.245-6.826,9.012,9.012,0,0,1,7.025-10.734,16.88,16.88,0,0,1,3.574-.422c2.478-.063,4.958-.016,7.438-.02.954,0,1.142-.189,1.17-1.129.075-2.46-.829-3.521-3.535-3.839a16.2,16.2,0,0,0-6.343.375,20.471,20.471,0,0,0-1.945.874,1.1,1.1,0,0,1-.8.053c-1.047-.544-2.056-1.161-3.091-1.728-.5-.273-.5-.6-.219-1.02a7.167,7.167,0,0,1,2.705-2.341,16.8,16.8,0,0,1,9.708-1.724,17.634,17.634,0,0,1,4.567,1.071,7.357,7.357,0,0,1,4.862,7.193c.1,5.86.048,11.724.055,17.586A5.567,5.567,0,0,0-582.987-1246.965Zm-6.732-13.5c-.91.1-1.7.25-2.489.263-2.106.035-4.213,0-6.319.017a4.258,4.258,0,0,0-3.956,2.125,3.736,3.736,0,0,0,1.552,5.14,8.785,8.785,0,0,0,6.581.847,5.054,5.054,0,0,0,4.289-4.263A39.479,39.479,0,0,0-589.719-1260.461Z" transform="translate(690.432 1290.693)" fill="#484848"/>
        <path id="Path_304" data-name="Path 304" d="M-237.964-1247.305c-.212.09-.293.155-.374.155-1.737.007-3.476.044-5.211-.027-.308-.012-.633-.45-.88-.749a1.807,1.807,0,0,1-.209-.665,26.8,26.8,0,0,1-3.435,1.335c-4.077.986-8.057.906-11.65-1.621a9.457,9.457,0,0,1-2.7-13.165,9.2,9.2,0,0,1,7.236-3.99c3.045-.212,6.11-.126,9.167-.162,1.2-.014,1.36-.153,1.429-1.333a2.929,2.929,0,0,0-2.414-3.392,15.4,15.4,0,0,0-8.355.395,1.638,1.638,0,0,0-.678.338c-.625.663-1.19.422-1.83.013-.8-.511-1.64-.956-2.472-1.412-.481-.263-.524-.583-.231-1.02a7.578,7.578,0,0,1,3.511-2.742,17.869,17.869,0,0,1,12.829-.539c3.75,1.243,5.546,4.069,5.554,8.44q.015,8.342,0,16.683A5.307,5.307,0,0,0-237.964-1247.305Zm-6.66-13.371c-1,.093-1.88.23-2.763.247-2.221.043-4.448-.051-6.664.066a3.874,3.874,0,0,0-3.715,4.681,3.9,3.9,0,0,0,2.273,2.732,9.008,9.008,0,0,0,7.467.245,4.681,4.681,0,0,0,3.024-3.71C-244.743-1257.854-244.734-1259.338-244.624-1260.677Z" transform="translate(393.323 1290.925)" fill="#484848"/>
        <path id="Path_305" data-name="Path 305" d="M-418.894-1328.422v.839q0,5.8,0,11.61a8.1,8.1,0,0,0,.85,3.9,3.3,3.3,0,0,0,3.094,1.872c1.112,0,2.225.01,3.337,0a1.228,1.228,0,0,1,1.336.949,11.182,11.182,0,0,0,2.629,4.207.983.983,0,0,1,.214.525c.006.043-.259.178-.4.179-2.686.017-5.381.16-8.056-.009-3.818-.241-6.349-2.417-7.852-5.855a14.034,14.034,0,0,1-1.094-5.621c-.018-3.916-.006-7.833-.006-11.749v-.84c-.483,0-.893-.019-1.3,0a.848.848,0,0,1-.975-.694,7.492,7.492,0,0,0-3.326-4.617c-.111-.073-.151-.256-.223-.387a1.554,1.554,0,0,1,.526-.226c1.46-.019,2.92-.011,4.38-.013.917,0,.918,0,.919-.893q0-3.476,0-6.952c0-.982.151-1.147,1.147-1.046,1.334.135,2.661.348,3.994.494.646.071.829.388.819,1.015-.033,2.2.008,4.4-.026,6.6-.009.6.144.8.77.792,2.108-.037,4.218,0,6.326-.023.651-.008.917.21.9.886-.036,1.413-.024,2.827-.005,4.24.008.6-.243.825-.834.821C-414.089-1328.432-416.427-1328.422-418.894-1328.422Z" transform="translate(536.781 1348.129)" fill="#484848"/>
        <path id="Path_306" data-name="Path 306" d="M364.764-1328.424c-.51,0-.923-.021-1.333.005a.847.847,0,0,1-.973-.7,7.427,7.427,0,0,0-3.316-4.621c-.109-.071-.144-.256-.214-.388a1.6,1.6,0,0,1,.531-.22c1.459-.019,2.919-.01,4.379-.012.923,0,.925,0,.925-.9,0-2.34,0-4.68,0-7.02,0-.927.129-1.072,1.06-.978,1.38.139,2.753.345,4.131.51.541.065.724.338.718.883-.025,2.224.017,4.448-.026,6.672-.013.691.217.854.87.842,2.061-.038,4.123-.016,6.185-.012.9,0,.977.087.979,1.005,0,1.344-.019,2.688.008,4.031.013.657-.243.909-.9.9-2.224-.022-4.448-.008-6.672-.005-.113,0-.227.024-.412.045-.013.251-.038.5-.038.744,0,3.846-.016,7.692.006,11.537a8.525,8.525,0,0,0,.776,3.846,3.387,3.387,0,0,0,3.272,2.042c1.066-.01,2.132.01,3.2-.006a1.261,1.261,0,0,1,1.388.971,10.9,10.9,0,0,0,2.456,3.993,3.605,3.605,0,0,1,.407.676,3.294,3.294,0,0,1-.8.224q-3.23.057-6.46.068a9.28,9.28,0,0,1-9.283-6.477,14.651,14.651,0,0,1-.859-5.108q0-5.838,0-11.676Z" transform="translate(-143.019 1348.131)" fill="#484848"/>
        <path id="Path_307" data-name="Path 307" d="M1053.011-1201.738v-.922q0-2.953,0-5.906c0-.91.006-.911.942-.914.625,0,1.251.008,1.876,0,.38,0,.554.17.542.546,0,.139,0,.278,0,.417q0,9.171,0,18.342c0,.96,0,.961-.968.964-.579,0-1.158-.014-1.737,0-.465.013-.685-.167-.662-.652s.005-.967.005-1.542c-.153.088-.243.112-.288.17-2.954,3.826-8.81,2.645-10.746-1.642-1.42-3.145-.807-7.283,1.5-9.5a6.315,6.315,0,0,1,9.172.319C1052.712-1201.993,1052.786-1201.939,1053.011-1201.738Zm-8.329,5.161c0,.208-.012.418,0,.625a4.3,4.3,0,0,0,3.384,3.993,4.023,4.023,0,0,0,4.572-2.568,5.035,5.035,0,0,0-.294-4.679,4.049,4.049,0,0,0-5.9-1.255A4.457,4.457,0,0,0,1044.682-1196.577Z" transform="translate(-730.434 1232.943)" fill="#a7a7a7"/>
        <path id="Path_308" data-name="Path 308" d="M862.2-1156.184a7.621,7.621,0,0,1-7.749-7.612,7.714,7.714,0,0,1,7.93-7.683,7.607,7.607,0,0,1,7.734,7.689A7.688,7.688,0,0,1,862.2-1156.184Zm4.47-7.594a4.346,4.346,0,0,0-4.4-4.673,4.268,4.268,0,0,0-4.386,4.6,4.54,4.54,0,0,0,4.5,4.733A4.362,4.362,0,0,0,866.67-1163.778Z" transform="translate(-569.636 1200.226)" fill="#a7a7a7"/>
        <path id="Path_309" data-name="Path 309" d="M774.363-1166.63a4.72,4.72,0,0,0-4.378-1.855,3.845,3.845,0,0,0-2.327,1.13,5.146,5.146,0,0,0-.406,6.461,4.1,4.1,0,0,0,3.539,1.725,5.82,5.82,0,0,0,3.561-1.72c.48.818.944,1.558,1.34,2.333.066.129-.11.47-.266.611a6.9,6.9,0,0,1-4.517,1.709,7.447,7.447,0,0,1-7.36-4.462,7.941,7.941,0,0,1,1.442-8.485,7.89,7.89,0,0,1,10.38-.738.6.6,0,0,1,.17.925C775.134-1168.278,774.8-1167.517,774.363-1166.63Z" transform="translate(-490.816 1200.269)" fill="#a7a7a7"/>
        <path id="Path_310" data-name="Path 310" d="M1008.34-1162.034c0,2.151-.02,4.3.013,6.454.01.638-.2.878-.832.837s-1.249-.022-1.873-.006c-.464.012-.664-.168-.662-.652q.015-6.7,0-13.393c0-.476.183-.67.656-.656.647.019,1.3.029,1.942,0,.568-.029.771.182.765.759C1008.325-1166.475,1008.34-1164.255,1008.34-1162.034Z" transform="translate(-699.238 1198.485)" fill="#a7a7a7"/>
        <path id="Path_311" data-name="Path 311" d="M737.958-1089.324a1.806,1.806,0,0,1,1.77,1.775,1.811,1.811,0,0,1-1.822,1.8,1.781,1.781,0,0,1-1.76-1.777A1.783,1.783,0,0,1,737.958-1089.324Z" transform="translate(-467.783 1129.495)" fill="#a7a7a7"/>
        <path id="Path_312" data-name="Path 312" d="M969.972-1085.755a1.782,1.782,0,0,1-1.814-1.722,1.789,1.789,0,0,1,1.761-1.849,1.815,1.815,0,0,1,1.824,1.794A1.816,1.816,0,0,1,969.972-1085.755Z" transform="translate(-667.532 1129.497)" fill="#a7a7a7"/>
        <path id="Path_313" data-name="Path 313" d="M1004.153-1207.748a1.754,1.754,0,0,1,1.73-1.786,1.756,1.756,0,0,1,1.836,1.753,1.846,1.846,0,0,1-1.738,1.814A1.8,1.8,0,0,1,1004.153-1207.748Z" transform="translate(-698.522 1232.99)" fill="#a7a7a7"/>
      </g>
    </g>
  </g>
</svg>
